<mxfile host="app.diagrams.net" modified="2024-05-31T15:29:00.958Z" agent="Mozilla/5.0 (X11; Ubuntu; Linux x86_64; rv:126.0) Gecko/20100101 Firefox/126.0" etag="HJcrbrtSqCFTDxUXAWOv" version="24.4.13" type="device">
  <diagram name="Architecture" id="gsl98D8T5LpmgpRov3pv">
    <mxGraphModel dx="474" dy="846" grid="1" gridSize="10" guides="1" tooltips="1" connect="1" arrows="1" fold="1" page="1" pageScale="1" pageWidth="850" pageHeight="1100" math="0" shadow="0">
      <root>
        <mxCell id="SOyPLKrSQ2KFvX7laYr--0" />
        <mxCell id="SOyPLKrSQ2KFvX7laYr--1" parent="SOyPLKrSQ2KFvX7laYr--0" />
        <mxCell id="SOyPLKrSQ2KFvX7laYr--2" value="&lt;b&gt;&lt;span style=&quot;font-size: 15px;&quot;&gt;&amp;nbsp;Monitoring&lt;br&gt;&lt;/span&gt;&lt;/b&gt;" style="rounded=1;whiteSpace=wrap;html=1;glass=0;shadow=0;verticalAlign=top;fontSize=15;arcSize=3;align=left;fontStyle=0" parent="SOyPLKrSQ2KFvX7laYr--1" vertex="1">
          <mxGeometry width="680" height="300" as="geometry" />
        </mxCell>
        <mxCell id="SOyPLKrSQ2KFvX7laYr--3" value="&lt;span style=&quot;font-size: 15px;&quot;&gt;&amp;nbsp;Frontend&lt;/span&gt;" style="rounded=1;whiteSpace=wrap;html=1;glass=0;shadow=0;verticalAlign=top;arcSize=6;fontSize=15;align=left;fontStyle=1" parent="SOyPLKrSQ2KFvX7laYr--1" vertex="1">
          <mxGeometry x="531" y="330" width="149" height="450" as="geometry" />
        </mxCell>
        <mxCell id="SOyPLKrSQ2KFvX7laYr--4" value="&lt;b&gt;&amp;nbsp;Backend&lt;/b&gt;" style="rounded=1;whiteSpace=wrap;html=1;glass=0;shadow=0;verticalAlign=top;arcSize=2;fontSize=15;align=left;" parent="SOyPLKrSQ2KFvX7laYr--1" vertex="1">
          <mxGeometry y="330" width="500" height="450" as="geometry" />
        </mxCell>
        <mxCell id="FHgDbfyR1QMbl3iw0IoY-18" value="" style="edgeStyle=orthogonalEdgeStyle;rounded=0;orthogonalLoop=1;jettySize=auto;html=1;startArrow=classic;startFill=1;" parent="SOyPLKrSQ2KFvX7laYr--1" source="SOyPLKrSQ2KFvX7laYr--8" target="FHgDbfyR1QMbl3iw0IoY-16" edge="1">
          <mxGeometry relative="1" as="geometry" />
        </mxCell>
        <mxCell id="SOyPLKrSQ2KFvX7laYr--17" style="edgeStyle=orthogonalEdgeStyle;rounded=0;orthogonalLoop=1;jettySize=auto;html=1;exitX=1;exitY=0.5;exitDx=0;exitDy=0;entryX=0;entryY=0.5;entryDx=0;entryDy=0;startArrow=classic;startFill=1;" parent="SOyPLKrSQ2KFvX7laYr--1" source="SOyPLKrSQ2KFvX7laYr--19" target="SOyPLKrSQ2KFvX7laYr--24" edge="1">
          <mxGeometry relative="1" as="geometry" />
        </mxCell>
        <mxCell id="SOyPLKrSQ2KFvX7laYr--23" value="" style="edgeStyle=orthogonalEdgeStyle;rounded=0;orthogonalLoop=1;jettySize=auto;html=1;entryX=0;entryY=0.25;entryDx=0;entryDy=0;startArrow=classic;startFill=1;" parent="SOyPLKrSQ2KFvX7laYr--1" source="SOyPLKrSQ2KFvX7laYr--24" target="KVADSGi9eFTHOu3GzwZl-0" edge="1">
          <mxGeometry relative="1" as="geometry">
            <mxPoint x="385" y="536.25" as="targetPoint" />
          </mxGeometry>
        </mxCell>
        <mxCell id="SOyPLKrSQ2KFvX7laYr--25" value="" style="edgeStyle=orthogonalEdgeStyle;rounded=0;orthogonalLoop=1;jettySize=auto;html=1;entryX=0;entryY=0.75;entryDx=0;entryDy=0;startArrow=classic;startFill=1;" parent="SOyPLKrSQ2KFvX7laYr--1" source="SOyPLKrSQ2KFvX7laYr--26" target="KVADSGi9eFTHOu3GzwZl-0" edge="1">
          <mxGeometry relative="1" as="geometry">
            <mxPoint x="385" y="571.25" as="targetPoint" />
          </mxGeometry>
        </mxCell>
        <mxCell id="SOyPLKrSQ2KFvX7laYr--29" value="" style="edgeStyle=orthogonalEdgeStyle;rounded=0;orthogonalLoop=1;jettySize=auto;html=1;startArrow=classic;startFill=1;endArrow=none;endFill=0;" parent="SOyPLKrSQ2KFvX7laYr--1" source="SOyPLKrSQ2KFvX7laYr--30" target="SOyPLKrSQ2KFvX7laYr--28" edge="1">
          <mxGeometry relative="1" as="geometry" />
        </mxCell>
        <mxCell id="SOyPLKrSQ2KFvX7laYr--35" value="&lt;b style=&quot;font-size: 15px;&quot;&gt;&amp;nbsp;HPC Resources&lt;/b&gt;" style="rounded=1;whiteSpace=wrap;html=1;glass=0;shadow=0;verticalAlign=top;arcSize=6;fontSize=15;align=left;" parent="SOyPLKrSQ2KFvX7laYr--1" vertex="1">
          <mxGeometry y="810" width="500" height="130" as="geometry" />
        </mxCell>
        <mxCell id="SOyPLKrSQ2KFvX7laYr--36" style="edgeStyle=orthogonalEdgeStyle;rounded=0;orthogonalLoop=1;jettySize=auto;html=1;startArrow=classic;startFill=1;entryX=0.5;entryY=1;entryDx=0;entryDy=0;" parent="SOyPLKrSQ2KFvX7laYr--1" source="SOyPLKrSQ2KFvX7laYr--39" target="FHgDbfyR1QMbl3iw0IoY-23" edge="1">
          <mxGeometry relative="1" as="geometry">
            <mxPoint x="415" y="867.97" as="sourcePoint" />
            <mxPoint x="415" y="630" as="targetPoint" />
          </mxGeometry>
        </mxCell>
        <mxCell id="SOyPLKrSQ2KFvX7laYr--37" style="edgeStyle=orthogonalEdgeStyle;rounded=0;orthogonalLoop=1;jettySize=auto;html=1;startArrow=classic;startFill=1;" parent="SOyPLKrSQ2KFvX7laYr--1" source="SOyPLKrSQ2KFvX7laYr--39" target="SOyPLKrSQ2KFvX7laYr--38" edge="1">
          <mxGeometry relative="1" as="geometry">
            <mxPoint x="380" y="878.0999999999999" as="sourcePoint" />
          </mxGeometry>
        </mxCell>
        <mxCell id="FHgDbfyR1QMbl3iw0IoY-7" value="" style="group" parent="SOyPLKrSQ2KFvX7laYr--1" vertex="1" connectable="0">
          <mxGeometry x="550.5" y="185" width="110" height="90" as="geometry" />
        </mxCell>
        <mxCell id="FHgDbfyR1QMbl3iw0IoY-5" value="" style="shape=image;verticalLabelPosition=bottom;labelBackgroundColor=default;verticalAlign=top;aspect=fixed;imageAspect=0;image=data:image/svg+xml,PHN2ZyB4bWxucz0iaHR0cDovL3d3dy53My5vcmcvMjAwMC9zdmciIHZpZXdCb3g9IjAgMCAyNCAyNCIgcm9sZT0iaW1nIj48dGl0bGU+TkdJTlg8L3RpdGxlPjxwYXRoIGQ9Ik0xMiAwTDEuNjA1IDZ2MTJMMTIgMjRsMTAuMzk1LTZWNkwxMiAwem02IDE2LjU5YzAgLjcwNS0uNjQ2IDEuMjktMS41MjkgMS4yOS0uNjMxIDAtMS4zNTEtLjI1NS0xLjgwMS0uODFsLTYtNy4xNDF2Ni42NmMwIC43MjEtLjU3IDEuMjktMS4yNzQgMS4yOUg3LjMyYy0uNzIxIDAtMS4yOS0uNi0xLjI5LTEuMjlWNy40MWMwLS43MDUuNjMtMS4yOSAxLjUtMS4yOS42NDYgMCAxLjM4LjI1NSAxLjgzLjgxbDUuOTcgNy4xNDFWNy40MWMwLS43MjEuNi0xLjI5IDEuMjktMS4yOWguMDc1Yy43MiAwIDEuMjkuNiAxLjI5IDEuMjl2OS4xOEgxOHoiLz48L3N2Zz4=;" parent="FHgDbfyR1QMbl3iw0IoY-7" vertex="1">
          <mxGeometry x="25" width="70" height="70" as="geometry" />
        </mxCell>
        <mxCell id="FHgDbfyR1QMbl3iw0IoY-6" value="Webproxy Exporter" style="text;whiteSpace=wrap;html=1;align=center;verticalAlign=middle;" parent="FHgDbfyR1QMbl3iw0IoY-7" vertex="1">
          <mxGeometry y="75" width="120" height="20" as="geometry" />
        </mxCell>
        <mxCell id="FHgDbfyR1QMbl3iw0IoY-9" style="edgeStyle=orthogonalEdgeStyle;rounded=0;orthogonalLoop=1;jettySize=auto;html=1;exitX=0.5;exitY=0;exitDx=0;exitDy=0;entryX=1;entryY=0.5;entryDx=0;entryDy=0;" parent="SOyPLKrSQ2KFvX7laYr--1" source="FHgDbfyR1QMbl3iw0IoY-5" target="SOyPLKrSQ2KFvX7laYr--28" edge="1">
          <mxGeometry relative="1" as="geometry" />
        </mxCell>
        <mxCell id="FHgDbfyR1QMbl3iw0IoY-15" value="" style="group" parent="SOyPLKrSQ2KFvX7laYr--1" vertex="1" connectable="0">
          <mxGeometry x="550.5" y="385" width="110" height="90" as="geometry" />
        </mxCell>
        <mxCell id="FHgDbfyR1QMbl3iw0IoY-16" value="" style="shape=image;verticalLabelPosition=bottom;labelBackgroundColor=default;verticalAlign=top;aspect=fixed;imageAspect=0;image=data:image/svg+xml,PHN2ZyB4bWxucz0iaHR0cDovL3d3dy53My5vcmcvMjAwMC9zdmciIHZpZXdCb3g9IjAgMCAyNCAyNCIgcm9sZT0iaW1nIj48dGl0bGU+TkdJTlg8L3RpdGxlPjxwYXRoIGQ9Ik0xMiAwTDEuNjA1IDZ2MTJMMTIgMjRsMTAuMzk1LTZWNkwxMiAwem02IDE2LjU5YzAgLjcwNS0uNjQ2IDEuMjktMS41MjkgMS4yOS0uNjMxIDAtMS4zNTEtLjI1NS0xLjgwMS0uODFsLTYtNy4xNDF2Ni42NmMwIC43MjEtLjU3IDEuMjktMS4yNzQgMS4yOUg3LjMyYy0uNzIxIDAtMS4yOS0uNi0xLjI5LTEuMjlWNy40MWMwLS43MDUuNjMtMS4yOSAxLjUtMS4yOS42NDYgMCAxLjM4LjI1NSAxLjgzLjgxbDUuOTcgNy4xNDFWNy40MWMwLS43MjEuNi0xLjI5IDEuMjktMS4yOWguMDc1Yy43MiAwIDEuMjkuNiAxLjI5IDEuMjl2OS4xOEgxOHoiLz48L3N2Zz4=;" parent="FHgDbfyR1QMbl3iw0IoY-15" vertex="1">
          <mxGeometry x="25" width="70" height="70" as="geometry" />
        </mxCell>
        <mxCell id="FHgDbfyR1QMbl3iw0IoY-17" value="Webproxy" style="text;whiteSpace=wrap;html=1;align=center;verticalAlign=middle;" parent="FHgDbfyR1QMbl3iw0IoY-15" vertex="1">
          <mxGeometry y="75" width="120" height="20" as="geometry" />
        </mxCell>
        <mxCell id="FHgDbfyR1QMbl3iw0IoY-20" value="" style="edgeStyle=orthogonalEdgeStyle;rounded=0;orthogonalLoop=1;jettySize=auto;html=1;" parent="SOyPLKrSQ2KFvX7laYr--1" source="FHgDbfyR1QMbl3iw0IoY-16" target="FHgDbfyR1QMbl3iw0IoY-6" edge="1">
          <mxGeometry relative="1" as="geometry" />
        </mxCell>
        <mxCell id="FHgDbfyR1QMbl3iw0IoY-22" value="" style="group" parent="SOyPLKrSQ2KFvX7laYr--1" vertex="1" connectable="0">
          <mxGeometry x="550.5" y="537.5" width="110" height="85" as="geometry" />
        </mxCell>
        <mxCell id="SOyPLKrSQ2KFvX7laYr--16" value="" style="shape=image;verticalLabelPosition=bottom;labelBackgroundColor=default;verticalAlign=top;aspect=fixed;imageAspect=0;image=data:image/svg+xml,PHN2ZyB2aWV3Qm94PSIwIDAgMzIgMzIiIGhlaWdodD0iMzIiIHdpZHRoPSIzMiIgeG1sbnM9Imh0dHA6Ly93d3cudzMub3JnLzIwMDAvc3ZnIj4mI3hhOyAgPHBhdGggZD0iTTEzLjI0IDE2Ljg1OWg1LjUxbC0yLjc1NS02LjU0MnpNMTUuOTk1IDAuMDEwbC0xNS4wNzggNS4zMDcgMi4yOTcgMTkuNjc3IDEyLjc4MSA2Ljk5NSAxMi43ODYtNi45ODQgMi4yOTctMTkuNjg4LTE1LjA4My01LjMwMnpNMjUuNDA2IDI0LjQwNmgtMy41MTZsLTEuODk2LTQuNjY3aC04bC0xLjg5NiA0LjY2N2gtMy41MTZsOS40MTEtMjAuODY1eiIvPiYjeGE7PC9zdmc+;" parent="FHgDbfyR1QMbl3iw0IoY-22" vertex="1">
          <mxGeometry x="25" width="70" height="70" as="geometry" />
        </mxCell>
        <mxCell id="FHgDbfyR1QMbl3iw0IoY-21" value="Keystone-Web" style="text;whiteSpace=wrap;html=1;align=center;verticalAlign=middle;" parent="FHgDbfyR1QMbl3iw0IoY-22" vertex="1">
          <mxGeometry y="75" width="120" height="20" as="geometry" />
        </mxCell>
        <mxCell id="FHgDbfyR1QMbl3iw0IoY-24" value="" style="group" parent="SOyPLKrSQ2KFvX7laYr--1" vertex="1" connectable="0">
          <mxGeometry x="360" y="518.75" width="110" height="82.5" as="geometry" />
        </mxCell>
        <mxCell id="FHgDbfyR1QMbl3iw0IoY-23" value="Keystone-API" style="text;whiteSpace=wrap;html=1;verticalAlign=middle;align=center;" parent="FHgDbfyR1QMbl3iw0IoY-24" vertex="1">
          <mxGeometry y="75" width="120" height="20" as="geometry" />
        </mxCell>
        <mxCell id="KVADSGi9eFTHOu3GzwZl-0" value="" style="shape=image;verticalLabelPosition=bottom;labelBackgroundColor=default;verticalAlign=top;aspect=fixed;imageAspect=0;image=data:image/svg+xml,PHN2ZyB4bWxucz0iaHR0cDovL3d3dy53My5vcmcvMjAwMC9zdmciIHZpZXdCb3g9IjAgMCAyNCAyNCIgcm9sZT0iaW1nIj48dGl0bGU+RGphbmdvPC90aXRsZT48cGF0aCBkPSJNMTEuMTQ2IDBoMy45MjR2MTguMTY2Yy0yLjAxMy4zODItMy40OTEuNTM1LTUuMDk2LjUzNS00Ljc5MSAwLTcuMjg4LTIuMTY2LTcuMjg4LTYuMzIgMC00LjAwMiAyLjY1LTYuNiA2Ljc1My02LjYuNjM3IDAgMS4xMjEuMDUgMS43MDcuMjAzem0wIDkuMTQzYTMuODk0IDMuODk0IDAgMDAtMS4zMjUtLjIwNGMtMS45ODggMC0zLjEzNCAxLjIyMy0zLjEzNCAzLjM2NSAwIDIuMDkgMS4wOTYgMy4yMzYgMy4xMDkgMy4yMzYuNDMzIDAgLjc5LS4wMjUgMS4zNS0uMTAyVjkuMTQyek0yMS4zMTQgNi4wNnY5LjA5OGMwIDMuMTM0LS4yMjkgNC42MzgtLjkxNyA1LjkzNy0uNjM3IDEuMjQ5LTEuNDc4IDIuMDM5LTMuMjExIDIuOTA1bC0zLjY0NC0xLjczM2MxLjczMy0uODE1IDIuNTc0LTEuNTMgMy4xMDktMi42MjUuNTYxLTEuMTIxLjczOS0yLjQyMS43MzktNS44MzVWNi4wNTloMy45MjR6TTE3LjM5LjAyMWgzLjkyNHY0LjAyNkgxNy4zOXoiLz48L3N2Zz4=;" vertex="1" parent="FHgDbfyR1QMbl3iw0IoY-24">
          <mxGeometry x="25" width="70" height="70" as="geometry" />
        </mxCell>
        <mxCell id="FHgDbfyR1QMbl3iw0IoY-29" value="" style="group" parent="SOyPLKrSQ2KFvX7laYr--1" vertex="1" connectable="0">
          <mxGeometry x="45" y="518.75" width="90" height="87.5" as="geometry" />
        </mxCell>
        <mxCell id="SOyPLKrSQ2KFvX7laYr--21" value="" style="shape=image;verticalLabelPosition=bottom;labelBackgroundColor=default;verticalAlign=top;aspect=fixed;imageAspect=0;image=data:image/svg+xml,PHN2ZyB2aWV3Qm94PSIwIDAgMzIgMzIiIGhlaWdodD0iMzIiIHdpZHRoPSIzMiIgeG1sbnM9Imh0dHA6Ly93d3cudzMub3JnLzIwMDAvc3ZnIj4mI3hhOyAgPHBhdGggZD0iTTMxLjk5IDE5LjEyYy0wLjAxMCAwLjMwNy0wLjQxNyAwLjY0Ni0xLjI0NSAxLjA3OC0xLjcwOCAwLjg5MS0xMC41NTIgNC41MzEtMTIuNDM4IDUuNTEtMS44ODUgMC45ODQtMi45MjcgMC45NzQtNC40MTcgMC4yNi0xLjQ5LTAuNzA4LTEwLjkwMS00LjUxNi0xMi41OTktNS4zMjMtMC44NDQtMC40MDYtMS4yNzYtMC43NDUtMS4yOTItMS4wNjh2My4yMzRjMCAwLjMyMyAwLjQ0OCAwLjY2MSAxLjI5MiAxLjA2OCAxLjY5OCAwLjgxMyAxMS4xMTUgNC42MTUgMTIuNTk5IDUuMzIzIDEuNDkgMC43MTQgMi41MzEgMC43MjQgNC40MTctMC4yNiAxLjg4NS0wLjk3OSAxMC43MjktNC42MiAxMi40MzgtNS41MSAwLjg3LTAuNDQ4IDEuMjU1LTAuODAyIDEuMjU1LTEuMTIgMC0wLjMwMiAwLTMuMTg4IDAtMy4xODggMC0wLjAwNS0wLjAwNS0wLjAwNS0wLjAxMC0wLjAwNXpNMzEuOTkgMTMuODQ5Yy0wLjAxNiAwLjMwMi0wLjQxNyAwLjY0MS0xLjI0NSAxLjA3OC0xLjcwOCAwLjg4NS0xMC41NTIgNC41MjYtMTIuNDM4IDUuNTA1LTEuODg1IDAuOTg0LTIuOTI3IDAuOTc0LTQuNDE3IDAuMjY2LTEuNDktMC43MTQtMTAuOTAxLTQuNTE2LTEyLjU5OS01LjMyOC0wLjg0NC0wLjQwMS0xLjI3Ni0wLjc0NS0xLjI5Mi0xLjA2OHYzLjIzNGMwIDAuMzIzIDAuNDQ4IDAuNjY3IDEuMjkyIDEuMDY4IDEuNjk4IDAuODEzIDExLjEwOSA0LjYxNSAxMi41OTkgNS4zMjggMS40OSAwLjcwOCAyLjUzMSAwLjcxOSA0LjQxNy0wLjI2IDEuODg1LTAuOTg0IDEwLjcyOS00LjYyIDEyLjQzOC01LjUxIDAuODctMC40NTMgMS4yNTUtMC44MDcgMS4yNTUtMS4xMjUgMC0wLjMwMiAwLTMuMTg4IDAtMy4xODhzLTAuMDA1IDAtMC4wMTAgMHpNMzEuOTkgOC4zNzVjMC4wMTYtMC4zMjMtMC40MDYtMC42MDktMS4yNjYtMC45MjItMS42NjEtMC42MDktMTAuNDU4LTQuMTA5LTEyLjE0MS00LjcyOS0xLjY4Mi0wLjYxNS0yLjM3LTAuNTg5LTQuMzQ5IDAuMTItMS45NzkgMC43MTQtMTEuMzM5IDQuMzg1LTEzLjAwNSA1LjAzNi0wLjgzMyAwLjMyOC0xLjI0IDAuNjMtMS4yMjQgMC45NTN2My4yMzRjMCAwLjMyMyAwLjQ0MyAwLjY2MSAxLjI5MiAxLjA2OCAxLjY5MyAwLjgxMyAxMS4xMDkgNC42MTUgMTIuNTk5IDUuMzI4IDEuNDg0IDAuNzA4IDIuNTMxIDAuNzE5IDQuNDE3LTAuMjY2IDEuODgtMC45NzkgMTAuNzI5LTQuNjIgMTIuNDM4LTUuNTA1IDAuODY1LTAuNDUzIDEuMjUtMC44MDcgMS4yNS0xLjEyNSAwLTAuMzAyIDAtMy4xOTMgMC0zLjE5M3pNMTEuNDU4IDExLjQzOGw3LjQxNy0xLjEzNS0yLjI0IDMuMjgxek0yNy44NTkgOC40NzlsLTQuODU5IDEuOTIyLTQuMzg1LTEuNzM0IDQuODU0LTEuOTE3ek0xNC45ODQgNS4zMDJsLTAuNzE5LTEuMzIzIDIuMjQgMC44NzUgMi4xMDktMC42ODgtMC41NzMgMS4zNjUgMi4xNTEgMC44MDctMi43NzEgMC4yODYtMC42MjUgMS40OTUtMS0xLjY2Ny0zLjIwMy0wLjI4NnpNOS40NTggNy4xNzJjMi4xOTMgMCAzLjk2NCAwLjY4OCAzLjk2NCAxLjUzMSAwIDAuODQ5LTEuNzc2IDEuNTM2LTMuOTY0IDEuNTM2cy0zLjk2NC0wLjY4OC0zLjk2NC0xLjUzNmMwLTAuODQ0IDEuNzc2LTEuNTMxIDMuOTY0LTEuNTMxeiIvPiYjeGE7PC9zdmc+;" parent="FHgDbfyR1QMbl3iw0IoY-29" vertex="1">
          <mxGeometry x="25" width="70" height="70" as="geometry" />
        </mxCell>
        <mxCell id="FHgDbfyR1QMbl3iw0IoY-27" value="Job Cache" style="text;whiteSpace=wrap;html=1;align=center;verticalAlign=middle;" parent="FHgDbfyR1QMbl3iw0IoY-29" vertex="1">
          <mxGeometry y="75" width="120" height="20" as="geometry" />
        </mxCell>
        <mxCell id="FHgDbfyR1QMbl3iw0IoY-33" value="" style="group" parent="SOyPLKrSQ2KFvX7laYr--1" vertex="1" connectable="0">
          <mxGeometry x="45" y="385" width="110" height="80" as="geometry" />
        </mxCell>
        <mxCell id="SOyPLKrSQ2KFvX7laYr--19" value="" style="shape=image;verticalLabelPosition=bottom;labelBackgroundColor=default;verticalAlign=top;aspect=fixed;imageAspect=0;image=data:image/svg+xml,PHN2ZyB4bWxucz0iaHR0cDovL3d3dy53My5vcmcvMjAwMC9zdmciIHZpZXdCb3g9IjAgMCAyNCAyNCIgcm9sZT0iaW1nIj48dGl0bGU+Q2VsZXJ5PC90aXRsZT48cGF0aCBkPSJNMi4zMDMgMEEyLjI5OCAyLjI5OCAwIDAgMCAwIDIuMzAzdjE5LjM5NEEyLjI5OCAyLjI5OCAwIDAgMCAyLjMwMyAyNGgxOS4zOTRBMi4yOTggMi4yOTggMCAwIDAgMjQgMjEuNjk3VjIuMzAzQTIuMjk4IDIuMjk4IDAgMCAwIDIxLjY5NyAwem04LjE3NyAzLjA3MmM0LjA5OCAwIDcuMDI4IDEuNDM4IDcuNjggMS43NjRsLTEuMTk0IDIuNTVjLTIuNDQyLTEuMDU3LTQuOTkzLTEuNDEtNS42NzItMS40MS0xLjU3NCAwLTIuMTcuOTIyLTIuMTcgMS43NjN2OC40OTRjMCAuODY5LjU5NiAxLjc5MSAyLjE3IDEuNzkxLjY3OSAwIDMuMjMtLjM4IDUuNjcyLTEuNDFsMS4xOTQgMi40OTZjLS40MzUuMjcxLTMuNjM3IDEuODE4LTcuNjggMS44MTgtMS4xMTIgMC00LjY0LS4yNDQtNC42NC00LjY0VjcuNzEzYzAtNC4zOTcgMy41MjgtNC42NCA0LjY0LTQuNjR6Ii8+PC9zdmc+;" parent="FHgDbfyR1QMbl3iw0IoY-33" vertex="1">
          <mxGeometry x="25" width="70" height="70" as="geometry" />
        </mxCell>
        <mxCell id="FHgDbfyR1QMbl3iw0IoY-32" value="Task Worker(s)" style="text;whiteSpace=wrap;html=1;align=center;verticalAlign=middle;" parent="FHgDbfyR1QMbl3iw0IoY-33" vertex="1">
          <mxGeometry y="75" width="120" height="20" as="geometry" />
        </mxCell>
        <mxCell id="FHgDbfyR1QMbl3iw0IoY-34" value="" style="edgeStyle=orthogonalEdgeStyle;rounded=0;orthogonalLoop=1;jettySize=auto;html=1;startArrow=classic;startFill=1;" parent="SOyPLKrSQ2KFvX7laYr--1" source="SOyPLKrSQ2KFvX7laYr--21" target="FHgDbfyR1QMbl3iw0IoY-32" edge="1">
          <mxGeometry relative="1" as="geometry" />
        </mxCell>
        <mxCell id="lpeds_Ub-o3JxPmcsXHy-0" value="" style="group" parent="SOyPLKrSQ2KFvX7laYr--1" vertex="1" connectable="0">
          <mxGeometry x="205" y="650" width="120" height="95" as="geometry" />
        </mxCell>
        <mxCell id="SOyPLKrSQ2KFvX7laYr--26" value="" style="shape=image;verticalLabelPosition=bottom;labelBackgroundColor=default;verticalAlign=top;aspect=fixed;imageAspect=0;image=data:image/svg+xml,PHN2ZyB4bWw6c3BhY2U9InByZXNlcnZlIiBzdHlsZT0iZW5hYmxlLWJhY2tncm91bmQ6bmV3IC05MDkgMjI2IDEwMCAxMDA7IiB2aWV3Qm94PSItOTA5IDIyNiAxMDAgMTAwIiBoZWlnaHQ9IjEwMHB4IiB3aWR0aD0iMTAwcHgiIHk9IjBweCIgeD0iMHB4IiB4bWxuczp4bGluaz0iaHR0cDovL3d3dy53My5vcmcvMTk5OS94bGluayIgeG1sbnM9Imh0dHA6Ly93d3cudzMub3JnLzIwMDAvc3ZnIiBpZD0iTGF5ZXJfMSIgdmVyc2lvbj0iMS4xIj4mI3hhOzxwYXRoIGQ9Ik0tODEzLjEsMjQ1LjF2LTAuM2wtMC40LTAuN2MtMi44LTkuMy0yMC43LTE1LjUtNDUtMTUuNWMtMjMuOCwwLTQyLjIsNi4zLTQ1LDE1LjVsLTAuNCwwLjRsMCw2My44bDAuMiwwLjcmI3hBOyYjOTtjMi40LDkuMiwyMS40LDE1LjksNDUuMiwxNS45YzIwLjUsMCw0Mi42LTUuNCw0NS4yLTE1LjhsMC4yLTAuOEwtODEzLjEsMjQ1LjFMLTgxMy4xLDI0NS4xeiBNLTg5OSwyNDYuM2wwLjItMC42JiN4QTsmIzk7YzEuMy01LDE0LjctMTIuMSw0MC4zLTEyLjFjMjUuNywwLDM5LDcuMSw0MC4zLDEyLjJsMC4xLDAuNGwwLjEsMC4xdjEuNWMtNCwzLTEzLjIsNS44LTI1LjYsNy4yYy0wLjYsMC4xLTEuMSwwLjEtMS43LDAuMiYjeEE7JiM5O2MtMC4xLDAtMC4yLDAtMC4zLDBjLTQuMSwwLjQtOC40LDAuNi0xMi44LDAuNmMtMTAuNiwwLTIwLjgtMS4yLTI5LTMuMmMtNS4zLTEuNC05LjItMy0xMS41LTQuN1YyNDYuM3ogTS04OTguOSwyNzQuMSYjeEE7JiM5O2M3LjksMy42LDIwLjIsNi4xLDMzLjYsNi42YzAuMywwLDAuNiwwLDEsMGMwLjMsMCwwLjYsMCwwLjksMGw5LjgsMGMxNC4yLTAuNCwyNy4yLTIuOSwzNS40LTYuN3YxMy41Yy0wLjMsMC4yLTAuNiwwLjMtMC45LDAuNSYjeEE7JiM5O2MtNiwyLjMtMjIuNSw4LjEtMzkuNCw4LjFjLTMuNywwLTcuMi0wLjEtMTAuNi0wLjRjMCwwLDAsMC0wLjEsMGMtMS0wLjEtMi0wLjItMy0wLjNjLTAuMywwLTAuNS0wLjEtMC44LTAuMSYjeEE7JiM5O2MtMC44LTAuMS0xLjYtMC4yLTIuMy0wLjNjLTAuMywwLTAuNS0wLjEtMC43LTAuMWMtMC44LTAuMS0xLjctMC4yLTIuNS0wLjNjMCwwLTAuMSwwLTAuMSwwYy05LjctMS41LTE2LjktNC0yMC40LTYuNVYyNzQuMXomI3hBOyYjOTsgTS04MTguMSwzMDcuNmwwLDAuMmMtMS41LDUuNy0xOC40LDEyLjEtNDAuNCwxMi4xYy0yNC40LDAtMzkuMS03LjEtNDAuNC0xMi4ybDAtMC4ydi0xMy4yYzQuNywyLjEsMTAuOSwzLjksMTgsNSYjeEE7JiM5O2MzLjIsMC41LDYuNywxLDEwLjUsMS4zYzAuMiwwLDAuMywwLDAuNSwwYzAuNSwwLDEuMSwwLjEsMS42LDAuMWMzLjIsMC4yLDYuNSwwLjMsOS44LDAuM2MxNi44LDAsMzEuOC0zLjgsNDAuNC04VjMwNy42eiYjeEE7JiM5OyBNLTgxOCwyNjcuOGMtMC4xLDAtMC4xLDAuMS0wLjIsMC4xYy0wLjQsMC4zLTAuOSwwLjYtMS40LDAuOWMtMS4xLDAuNi0yLjQsMS4yLTMuOSwxLjhjLTMuNCwxLjMtNy4yLDIuMy0xMS45LDMuMiYjeEE7JiM5O2MtNS45LDEuMS0xMS40LDEuNy0xNi41LDEuOGwtNSwwLjFjLTAuNywwLTEuNSwwLTIuMiwwLjFjLTEuNywwLTMuMywwLjEtNSwwLjFjLTAuMywwLTAuNiwwLTAuOSwwYy0wLjQsMC0wLjcsMC0xLjEtMC4xbC0xLjUtMC4xJiN4QTsmIzk7Yy0yLjMtMC4yLTQuOC0wLjQtNy4xLTAuNmMtNS4yLTAuNi05LjgtMS41LTE0LTIuN2MtMi42LTAuNy01LjktMS44LTguOS0zLjVjLTAuNS0wLjMtMC45LTAuNi0xLjMtMC44di0xMy45YzIuNywxLjIsNiwyLjQsOS42LDMuMyYjeEE7JiM5O2M3LjgsMi4xLDE4LjIsMy42LDMwLjcsMy42YzcuMSwwLDEzLjUtMC41LDE5LjEtMS4yYzguNi0xLjEsMTYtMy4xLDIxLjMtNS42VjI2Ny44eiIvPiYjeGE7PC9zdmc+;" parent="lpeds_Ub-o3JxPmcsXHy-0" vertex="1">
          <mxGeometry x="25" width="70" height="70" as="geometry" />
        </mxCell>
        <mxCell id="FHgDbfyR1QMbl3iw0IoY-25" value="File Storage" style="text;whiteSpace=wrap;html=1;verticalAlign=middle;align=center;" parent="lpeds_Ub-o3JxPmcsXHy-0" vertex="1">
          <mxGeometry y="75" width="120" height="20" as="geometry" />
        </mxCell>
        <mxCell id="lpeds_Ub-o3JxPmcsXHy-1" value="" style="group" parent="SOyPLKrSQ2KFvX7laYr--1" vertex="1" connectable="0">
          <mxGeometry x="210" y="518.75" width="110" height="80" as="geometry" />
        </mxCell>
        <mxCell id="lpeds_Ub-o3JxPmcsXHy-2" value="" style="shape=image;verticalLabelPosition=bottom;labelBackgroundColor=default;verticalAlign=top;aspect=fixed;imageAspect=0;image=data:image/svg+xml,PHN2ZyB4bWxucz0iaHR0cDovL3d3dy53My5vcmcvMjAwMC9zdmciIHZpZXdCb3g9IjAgMCAyNCAyNCIgcm9sZT0iaW1nIj48dGl0bGU+Q2VsZXJ5PC90aXRsZT48cGF0aCBkPSJNMi4zMDMgMEEyLjI5OCAyLjI5OCAwIDAgMCAwIDIuMzAzdjE5LjM5NEEyLjI5OCAyLjI5OCAwIDAgMCAyLjMwMyAyNGgxOS4zOTRBMi4yOTggMi4yOTggMCAwIDAgMjQgMjEuNjk3VjIuMzAzQTIuMjk4IDIuMjk4IDAgMCAwIDIxLjY5NyAwem04LjE3NyAzLjA3MmM0LjA5OCAwIDcuMDI4IDEuNDM4IDcuNjggMS43NjRsLTEuMTk0IDIuNTVjLTIuNDQyLTEuMDU3LTQuOTkzLTEuNDEtNS42NzItMS40MS0xLjU3NCAwLTIuMTcuOTIyLTIuMTcgMS43NjN2OC40OTRjMCAuODY5LjU5NiAxLjc5MSAyLjE3IDEuNzkxLjY3OSAwIDMuMjMtLjM4IDUuNjcyLTEuNDFsMS4xOTQgMi40OTZjLS40MzUuMjcxLTMuNjM3IDEuODE4LTcuNjggMS44MTgtMS4xMTIgMC00LjY0LS4yNDQtNC42NC00LjY0VjcuNzEzYzAtNC4zOTcgMy41MjgtNC42NCA0LjY0LTQuNjR6Ii8+PC9zdmc+;" parent="lpeds_Ub-o3JxPmcsXHy-1" vertex="1">
          <mxGeometry x="25" width="70" height="70" as="geometry" />
        </mxCell>
        <mxCell id="lpeds_Ub-o3JxPmcsXHy-3" value="Task Scheduler" style="text;whiteSpace=wrap;html=1;align=center;verticalAlign=middle;" parent="lpeds_Ub-o3JxPmcsXHy-1" vertex="1">
          <mxGeometry y="75" width="120" height="20" as="geometry" />
        </mxCell>
        <mxCell id="lpeds_Ub-o3JxPmcsXHy-4" value="" style="edgeStyle=orthogonalEdgeStyle;rounded=0;orthogonalLoop=1;jettySize=auto;html=1;" parent="SOyPLKrSQ2KFvX7laYr--1" target="lpeds_Ub-o3JxPmcsXHy-2" edge="1">
          <mxGeometry relative="1" as="geometry">
            <mxPoint x="385" y="553.75" as="sourcePoint" />
          </mxGeometry>
        </mxCell>
        <mxCell id="lpeds_Ub-o3JxPmcsXHy-5" value="" style="edgeStyle=orthogonalEdgeStyle;rounded=0;orthogonalLoop=1;jettySize=auto;html=1;" parent="SOyPLKrSQ2KFvX7laYr--1" source="lpeds_Ub-o3JxPmcsXHy-2" target="SOyPLKrSQ2KFvX7laYr--21" edge="1">
          <mxGeometry relative="1" as="geometry" />
        </mxCell>
        <mxCell id="lpeds_Ub-o3JxPmcsXHy-7" value="" style="group" parent="SOyPLKrSQ2KFvX7laYr--1" vertex="1" connectable="0">
          <mxGeometry x="210" y="385" width="130" height="90" as="geometry" />
        </mxCell>
        <mxCell id="SOyPLKrSQ2KFvX7laYr--24" value="" style="shape=image;verticalLabelPosition=bottom;labelBackgroundColor=default;verticalAlign=top;aspect=fixed;imageAspect=0;image=data:image/svg+xml,PHN2ZyB2aWV3Qm94PSIwIDAgMzIgMzIiIGhlaWdodD0iMzIiIHdpZHRoPSIzMiIgeG1sbnM9Imh0dHA6Ly93d3cudzMub3JnLzIwMDAvc3ZnIj4mI3hhOyAgPHBhdGggZD0iTTIyLjgzOSAwYy0xLjI0NSAwLjAxMS0yLjQ3OSAwLjE4OC0zLjY3NyAwLjUzNmwtMC4wODMgMC4wMjdjLTAuNzUxLTAuMTMxLTEuNTE2LTAuMjAzLTIuMjc2LTAuMjE5LTEuNTczLTAuMDI3LTIuOTIzIDAuMzUzLTQuMDExIDAuOTg5LTEuMDczLTAuMzY5LTMuMjk3LTEuMDE2LTUuNjQxLTAuODg1LTEuNjI5IDAuMDg4LTMuNDExIDAuNTgzLTQuNzM1IDEuOTc5LTEuMzEyIDEuMzkxLTIuMDA5IDMuNTQ3LTEuODY0IDYuNDg1IDAuMDQxIDAuODA3IDAuMjcxIDIuMTI0IDAuNjU2IDMuODM3IDAuMzggMS43MDkgMC45MTcgMy43MDkgMS41ODkgNS41MzcgMC42NzIgMS44MjMgMS40MDUgMy40NjMgMi41NTIgNC41NzcgMC41NzIgMC41NTcgMS4zNjQgMS4wMzIgMi4yOTYgMC45OTEgMC42NTItMC4wMjcgMS4yNC0wLjMxMyAxLjc1MS0wLjczNSAwLjI0OSAwLjMyOCAwLjUxNiAwLjQ2OCAwLjc1NSAwLjU5OSAwLjMwOCAwLjE2NyAwLjU5OSAwLjI4MSAwLjkwNyAwLjM1NSAwLjU1MiAwLjE0IDEuNDk1IDAuMzIzIDIuNTk5IDAuMTM1IDAuMzc1LTAuMDYzIDAuNzcxLTAuMTg3IDEuMTY3LTAuMzU5IDAuMDE2IDAuNDM3IDAuMDMyIDAuODY5IDAuMDQ3IDEuMzA3IDAuMDU3IDEuMzggMC4wOTUgMi42NTYgMC41MDUgMy43NzYgMC4wNjggMC4xODMgMC4yNTEgMS4xMiAwLjk2OSAxLjk1MyAwLjcyNCAwLjgzMyAyLjEyOSAxLjM0OSAzLjczOSAxLjAwNSAxLjEzMS0wLjI0IDIuNTczLTAuNjc3IDMuNTMyLTIuMDQxIDAuOTQ4LTEuMzQ0IDEuMzc1LTMuMjc2IDEuNDU5LTYuNDEyIDAuMDIwLTAuMTcyIDAuMDQ3LTAuMzEyIDAuMDcyLTAuNDQ4bDAuMjI0IDAuMDIxaDAuMDI3YzEuMjA4IDAuMDUyIDIuNTIxLTAuMTIgMy42Mi0wLjYzMSAwLjk2OC0wLjQ0OCAxLjcwMy0wLjkwMSAyLjIzOS0xLjcwOCAwLjEzMS0wLjE5OSAwLjI4MS0wLjQ0MyAwLjMxOS0wLjg2IDAuMDQxLTAuNDExLTAuMTk5LTEuMDYzLTAuNTk1LTEuMzY0LTAuNzkxLTAuNjA0LTEuMjkxLTAuMzc1LTEuODI4LTAuMjYtMC41MjUgMC4xMTUtMS4wNjMgMC4xNzYtMS41OTkgMC4xOTIgMS41NDEtMi41OTMgMi42NDUtNS4zNTMgMy4yNzYtNy43OTIgMC4zNzUtMS40NDMgMC41ODQtMi43NzEgMC41OTktMy45MzIgMC4wMjEtMS4xNjEtMC4wNzctMi4xODctMC43NzEtMy4wNzctMi4xNzctMi43NzYtNS4yMzUtMy41NDgtNy41OTktMy41NzMtMC4wNzMgMC0wLjE0NSAwLTAuMjE5IDB6TTIyLjc3NiAwLjg1NWMyLjIzNS0wLjAyMSA1LjA5MyAwLjYwNCA3LjE0NSAzLjIyOCAwLjQ2NCAwLjU4OSAwLjYgMS40NDggMC41ODQgMi41MTFzLTAuMjEzIDIuMzI4LTAuNTczIDMuNzE5Yy0wLjY5MiAyLjY5OS0yLjAxMSA1LjgzMy0zLjg1OSA4LjY1MiAwLjA2MyAwLjA0NyAwLjEzNSAwLjA4OCAwLjIwOCAwLjExNSAwLjM4NSAwLjE2MSAxLjI2NSAwLjI5NiAzLjAyNS0wLjA2MyAwLjQ0My0wLjA5NSAwLjc2Ny0wLjE1NiAxLjEwNSAwLjA5OSAwLjE2NyAwLjE0IDAuMjU1IDAuMzQ5IDAuMjQ0IDAuNTY4LTAuMDIwIDAuMTYxLTAuMDc3IDAuMzE3LTAuMTc3IDAuNDQ4LTAuMzM5IDAuNTA5LTEuMDA5IDAuOTk1LTEuODY5IDEuMzk2LTAuNzYgMC4zNTMtMS44NTUgMC41MzYtMi44MTcgMC41NDctMC40ODkgMC4wMDUtMC45MzctMC4wMzItMS4zMTktMC4xNTJsLTAuMDIwLTAuMDA0Yy0wLjE0NyAxLjQxMS0wLjQ4NCA0LjIwMy0wLjcwNCA1LjQ3My0wLjE3NiAxLjAyNS0wLjQ4NCAxLjg0NC0xLjA3MiAyLjQ1My0wLjU4OSAwLjYxNS0xLjQxNyAwLjk3OS0yLjUzNyAxLjIxOS0xLjM4NSAwLjI5Ny0yLjM5MS0wLjAyMS0zLjA0MS0wLjU2OHMtMC45NDgtMS4yNzYtMS4xMjUtMS43MTljLTAuMTI0LTAuMzA3LTAuMTg3LTAuNzAzLTAuMjQ5LTEuMjM1LTAuMDYzLTAuNTMxLTAuMTA0LTEuMTc3LTAuMTM2LTEuOTExLTAuMDQxLTEuMTItMC4wNTctMi4yNC0wLjA0MS0zLjM2NS0wLjU3NyAwLjUzMi0xLjI5NiAwLjg4LTIuMDY4IDEuMDE2LTAuOTIxIDAuMTU2LTEuNzM5IDAtMi4yMjgtMC4xMi0wLjI0LTAuMDYzLTAuNDc1LTAuMTUxLTAuNjkzLTAuMjcxLTAuMjI5LTAuMTItMC40NDMtMC4yNTUtMC41ODgtMC41MjctMC4wODQtMC4xNTYtMC4xMDktMC4zMzctMC4wNzMtMC41MDkgMC4wNDEtMC4xNzcgMC4xNDUtMC4zMjggMC4yODctMC40NDMgMC4yNjUtMC4yMTUgMC42MTUtMC4zMzMgMS4xNC0wLjQ0MyAwLjk1OS0wLjE5OSAxLjI5Ny0wLjMzMyAxLjUtMC40OTYgMC4xNzItMC4xMzUgMC4zNzEtMC40MTYgMC43MTMtMC44MjggMC0wLjAxNSAwLTAuMDM2LTAuMDA1LTAuMDUyLTAuNjE5LTAuMDIwLTEuMjI0LTAuMTgxLTEuNzcxLTAuNDc5LTAuMTk3IDAuMjA4LTEuMjI0IDEuMjkyLTIuNDY4IDIuNzkyLTAuNTIxIDAuNjI0LTEuMDk5IDAuOTg0LTEuNzEzIDEuMDExLTAuNjA5IDAuMDI1LTEuMTYzLTAuMjgxLTEuNjMxLTAuNzM1LTAuOTM3LTAuOTEyLTEuNjg4LTIuNDgtMi4zMzktNC4yNTFzLTEuMTc3LTMuNzQ0LTEuNTU3LTUuNDIxYy0wLjM3NS0xLjY4My0wLjU5OS0zLjAzNy0wLjYzMS0zLjY4OC0wLjE0LTIuNzc2IDAuNTExLTQuNjQ1IDEuNjI1LTUuODI4czIuNjQxLTEuNjI1IDQuMTMxLTEuNzEzYzIuNjcyLTAuMTUxIDUuMjEzIDAuNzgxIDUuNzI0IDAuOTc5IDAuOTg5LTAuNjcyIDIuMjY1LTEuMDg4IDMuODU5LTEuMDYzIDAuNzU2IDAuMDExIDEuNTA1IDAuMTA5IDIuMjQgMC4yOTJsMC4wMjctMC4wMTZjMC4zMjMtMC4xMDkgMC42NTEtMC4yMDggMC45ODQtMC4yOCAwLjkwNy0wLjIxNSAxLjgzMy0wLjMyNCAyLjc2LTAuMzM5ek0yMi45NzkgMS43NDVoLTAuMTk3Yy0wLjc2IDAuMDA5LTEuNTI3IDAuMDk5LTIuMjcxIDAuMjYgMS42NjEgMC43MzUgMi45MTYgMS44NjQgMy44MDEgMyAwLjYxNSAwLjc4MSAxLjEyIDEuNjQgMS41MDUgMi41NTcgMC4xNTIgMC4zNTUgMC4yNTEgMC42NTEgMC4zMDMgMC44OCAwLjAzMSAwLjExNSAwLjA0NyAwLjIxMyAwLjA1NyAwLjMxMiAwIDAuMDUyIDAuMDA1IDAuMTA1LTAuMDIxIDAuMTkzIDAgMC4wMDUtMC4wMDUgMC4wMTYtMC4wMDUgMC4wMjEgMC4wNDMgMS4xNjctMC4yNDkgMS45NTctMC4yODcgMy4wNzItMC4wMjUgMC44MDggMC4xODMgMS43NTYgMC4yMzUgMi43OTIgMC4wNDcgMC45NzMtMC4wNzIgMi4wNDEtMC43MDMgMy4wOTMgMC4wNTIgMC4wNjMgMC4wOTkgMC4xMjUgMC4xNTEgMC4xOTMgMS42NzItMi42MzYgMi44OC01LjU0NyAzLjUyMS04LjAzMiAwLjM0NC0xLjMzOSAwLjUyNS0yLjU1MiAwLjU0MS0zLjUwOSAwLjAxNi0wLjk1OS0wLjE2MS0xLjY1Ny0wLjM5MS0xLjk0OC0xLjc5Mi0yLjI4Ny00LjIxMy0yLjg3MS02LjI0LTIuODg1ek0xNi41ODggMi4wODhjLTEuNTcyIDAuMDA1LTIuNzAzIDAuNDgtMy41NjEgMS4xOTMtMC44ODcgMC43NC0xLjQ4IDEuNzQ1LTEuODY1IDIuNzgxLTAuNDY0IDEuMjI0LTAuNjI1IDIuNDExLTAuNjg4IDMuMjE5bDAuMDIxLTAuMDExYzAuNDc1LTAuMjY1IDEuMDk5LTAuNTM2IDEuNzcxLTAuNjg3IDAuNjY3LTAuMTU3IDEuMzkxLTAuMjA0IDIuMDQxIDAuMDUyIDAuNjU3IDAuMjQ5IDEuMTkzIDAuODQ4IDEuMzkxIDEuNzQ5IDAuOTM5IDQuMzQ0LTAuMjkxIDUuOTU5LTAuNzQ0IDcuMTc3LTAuMTcyIDAuNDQzLTAuMzIzIDAuODkxLTAuNDQzIDEuMzQ5IDAuMDU3LTAuMDExIDAuMTE1LTAuMDI3IDAuMTcyLTAuMDMyIDAuMzIzLTAuMDI1IDAuNTcyIDAuMDc5IDAuNzE5IDAuMTQxIDAuNDU5IDAuMTkyIDAuNzcxIDAuNTg4IDAuOTQzIDEuMDQxIDAuMDQxIDAuMTIgMC4wNzIgMC4yNDQgMC4wOTMgMC4zOCAwLjAxNiAwLjA1MiAwLjAyNyAwLjEwOSAwLjAyNyAwLjE2Ny0wLjA1MiAxLjY2MS0wLjA0OCAzLjMyMyAwLjAxNSA0Ljk4NCAwLjAzMiAwLjcxOSAwLjA3OSAxLjM0OSAwLjEzNiAxLjg0OSAwLjA1NyAwLjQ5NSAwLjEzNSAwLjg3NSAwLjE4OCAxLjAwNSAwLjE3MSAwLjQyNyAwLjQyMSAwLjk4NCAwLjg3NSAxLjM2NCAwLjQ0OCAwLjM4MSAxLjA5MyAwLjYzMSAyLjI3NiAwLjM4MSAxLjAyNS0wLjIyNCAxLjY1Ni0wLjUyNyAyLjA3Ny0wLjk2NCAwLjQyMy0wLjQ0MyAwLjY3Mi0xLjA1MiAwLjgzMy0xLjk4NCAwLjI0NS0xLjQwMSAwLjcyOS01LjQ2NCAwLjc4Ny02LjIyNC0wLjAyNS0wLjU3OSAwLjA1Ny0xLjAyMSAwLjI0NS0xLjM2IDAuMTg3LTAuMzQ0IDAuNDc5LTAuNTU3IDAuNzM1LTAuNjcyIDAuMTI0LTAuMDU3IDAuMjQ0LTAuMDkzIDAuMzQzLTAuMTI1LTAuMTA0LTAuMTQ1LTAuMjEzLTAuMjkxLTAuMzIzLTAuNDMyLTAuMzY0LTAuNDQzLTAuNjY3LTAuOTM3LTAuODkxLTEuNDYzLTAuMTA0LTAuMjItMC4yMTktMC40MzktMC4zNDQtMC42NDctMC4xNzYtMC4zMTctMC40LTAuNzE5LTAuNjM1LTEuMTcyLTAuNDY5LTAuODk2LTAuOTc5LTEuOTg5LTEuMjQ1LTMuMDUyLTAuMjY1LTEuMDYzLTAuMzAxLTIuMTYxIDAuMzc2LTIuOTMyIDAuNTk5LTAuNjg4IDEuNjU2LTAuOTczIDMuMjMzLTAuODEyLTAuMDQ3LTAuMTQxLTAuMDcyLTAuMjYxLTAuMTUxLTAuNDQzLTAuMzU5LTAuODQ0LTAuODI4LTEuNjM2LTEuMzkxLTIuMzU1LTEuMzM5LTEuNzEzLTMuNTExLTMuNDEyLTYuODU5LTMuNDY5ek03LjczNSAyLjE1NmMtMC4xNjcgMC0wLjMzOSAwLjAwNS0wLjUwNSAwLjAxNi0xLjM0OSAwLjA3OS0yLjYyIDAuNDY4LTMuNTMyIDEuNDMyLTAuOTExIDAuOTY5LTEuNTA5IDIuNTQ3LTEuMzggNS4xNjcgMC4wMjcgMC41IDAuMjQgMS44ODUgMC42MDkgMy41MzYgMC4zNzEgMS42NTIgMC44OTYgMy41OTUgMS41MjcgNS4zMTMgMC42MjkgMS43MTMgMS4zOTEgMy4yMDggMi4xMiAzLjkxNiAwLjM2NCAwLjM0OSAwLjY4MSAwLjQ5NSAwLjk2OCAwLjQ4NSAwLjI4Ny0wLjAxNiAwLjYzNi0wLjE4MyAxLjA2My0wLjY5MyAwLjc3Ni0wLjkzNyAxLjU3OS0xLjg0NCAyLjQxMi0yLjcyOS0xLjE5OS0xLjA0Ny0xLjc4Ny0yLjYyOS0xLjU1Mi00LjIwMyAwLjEzNS0wLjk4NCAwLjE1Ni0xLjkwNyAwLjEzNS0yLjYzNi0wLjAxNS0wLjcwOC0wLjA2My0xLjE3Ni0wLjA2My0xLjQ3MyAwLTAuMDExIDAtMC4wMTYgMC0wLjAyN3YtMC4wMDVsLTAuMDA1LTAuMDA5YzAtMS41MzcgMC4yNzItMy4wNTcgMC43OTItNC41IDAuMzc1LTAuOTk2IDAuOTI4LTIgMS43Ni0yLjgxOS0wLjgxNy0wLjI3MS0yLjI3MS0wLjY3Ni0zLjg0My0wLjc1NS0wLjE2Ny0wLjAxMS0wLjMzOS0wLjAxNi0wLjUwNS0wLjAxNnpNMjQuMjY1IDkuMTk3Yy0wLjkwNSAwLjAxNi0xLjQxMSAwLjI1MS0xLjY4MSAwLjU1Mi0wLjM3NiAwLjQzMy0wLjQxMiAxLjE5My0wLjE3NyAyLjEzMSAwLjIzMyAwLjkzNyAwLjcxOSAxLjk4NCAxLjE3MiAyLjg1NSAwLjIyNCAwLjQzNyAwLjQ0MyAwLjgyOCAwLjYxOSAxLjE0NSAwLjE4MyAwLjMyMyAwLjMxMyAwLjU0NyAwLjM5MSAwLjc0NSAwLjA3MyAwLjE3NyAwLjE1NyAwLjMzMyAwLjI0IDAuNDc5IDAuMzQ5LTAuNzQgMC40MTItMS40NjQgMC4zNzUtMi4yMjQtMC4wNDctMC45MzctMC4yNjUtMS44OTYtMC4yMjktMi44NjQgMC4wMzctMS4xMzYgMC4yNjEtMS44NzYgMC4yNzctMi43NTEtMC4zMjQtMC4wNDEtMC42NTctMC4wNjgtMC45ODUtMC4wNjh6TTEzLjI4NyA5LjM1NWMtMC4yNzYgMC0wLjU1MiAwLjAzNi0wLjgyMyAwLjA5OS0wLjUzNyAwLjEzMS0xLjA1MiAwLjMyOC0xLjUzNyAwLjU5OS0wLjE2MSAwLjA4OC0wLjMxNyAwLjE4OC0wLjQ2MyAwLjMwM2wtMC4wMzIgMC4wMjVjMC4wMTEgMC4xOTkgMC4wNDcgMC42NjcgMC4wNjMgMS4zNjUgMC4wMTYgMC43NiAwIDEuNzI4LTAuMTQ1IDIuNzc2LTAuMzIzIDIuMjgxIDEuMzMzIDQuMTY3IDMuMjc2IDQuMTcyIDAuMTE1LTAuNDY5IDAuMzAxLTAuOTQ0IDAuNDg5LTEuNDQzIDAuNTQxLTEuNDU5IDEuNjA0LTIuNTIxIDAuNzA4LTYuNjc3LTAuMTQ1LTAuNjc3LTAuNDM3LTAuOTUzLTAuODM5LTEuMTA5LTAuMjI0LTAuMDc5LTAuNDU3LTAuMTE1LTAuNjk3LTAuMTA5ek0yMy44NDQgOS42MjVoMC4wNjhjMC4wODMgMC4wMDUgMC4xNjcgMC4wMTEgMC4yMzkgMC4wMzEgMC4wNjggMC4wMTYgMC4xMzEgMC4wMzcgMC4xODMgMC4wNzMgMC4wNTIgMC4wMzEgMC4wODggMC4wODMgMC4wOTkgMC4xNDV2MC4wMTFjMCAwLjA2My0wLjAxNiAwLjEyNS0wLjA0NyAwLjE4My0wLjA0MSAwLjA3Mi0wLjA4OCAwLjE0LTAuMTQ1IDAuMTk3LTAuMTM2IDAuMTUxLTAuMzE5IDAuMjUxLTAuNTE2IDAuMjgxLTAuMTkzIDAuMDI3LTAuMzg1LTAuMDI1LTAuNTQ3LTAuMTM1LTAuMDYzLTAuMDQ4LTAuMTI1LTAuMS0wLjE3Mi0wLjE1Ny0wLjA0Ny0wLjA0Ny0wLjA3My0wLjEwOS0wLjA4NC0wLjE3Mi0wLjAwNC0wLjA2MSAwLjAxMS0wLjEyNCAwLjA1Mi0wLjE3MSAwLjA0OC0wLjA0OCAwLjEtMC4wODkgMC4xNTctMC4xMiAwLjEyOS0wLjA3MyAwLjMwMS0wLjEyNSAwLjUtMC4xNTIgMC4wNzItMC4wMDkgMC4xNDUtMC4wMTUgMC4yMTMtMC4wMjB6TTEzLjQxNiA5Ljg0OWMwLjA2OCAwIDAuMTQ3IDAuMDA1IDAuMjIgMC4wMTUgMC4yMDggMC4wMzIgMC4zODUgMC4wODQgMC41MjUgMC4xNjcgMC4wNjggMC4wMzIgMC4xMzEgMC4wODQgMC4xNzcgMC4xNDEgMC4wNTIgMC4wNjMgMC4wNzcgMC4xNCAwLjA3MyAwLjIyNC0wLjAxNiAwLjA3Ny0wLjA0OCAwLjE1MS0wLjEgMC4yMDgtMC4wNTcgMC4wNjgtMC4xMTkgMC4xMjUtMC4xOTIgMC4xNzItMC4xNzIgMC4xMjUtMC4zODUgMC4xNzctMC41OTkgMC4xNTEtMC4yMTUtMC4wMzYtMC40MTItMC4xNC0wLjU1Ny0wLjMwMS0wLjA2My0wLjA2OC0wLjExNS0wLjE0MS0wLjE1Ny0wLjIxOS0wLjA0Ny0wLjA3My0wLjA2Ny0wLjE1Ni0wLjA1Ny0wLjI0IDAuMDIxLTAuMTQgMC4xNDEtMC4yMTkgMC4yNTYtMC4yNiAwLjEzMS0wLjA0MyAwLjI3MS0wLjA1NyAwLjQxMS0wLjA1MnpNMjUuNDk1IDE5LjY0aC0wLjAwNWMtMC4xOTIgMC4wNzMtMC4zNTMgMC4xLTAuNDg5IDAuMTYzLTAuMTQgMC4wNTItMC4yNTEgMC4xNTYtMC4zMTcgMC4yODUtMC4wODkgMC4xNTItMC4xNTYgMC40MjMtMC4xMzYgMC44ODUgMC4wNTcgMC4wNDMgMC4xMjUgMC4wNzMgMC4xOTkgMC4wOTUgMC4yMjQgMC4wNjggMC42MDkgMC4xMTUgMS4wMzYgMC4xMDkgMC44NDktMC4wMTEgMS44OTYtMC4yMDggMi40NTMtMC40NjkgMC40NTMtMC4yMDggMC44OC0wLjQ4OSAxLjI1NS0wLjgxNy0xLjg1OSAwLjM4LTIuOTA1IDAuMjgxLTMuNTUyIDAuMDE2LTAuMTU2LTAuMDY4LTAuMzA3LTAuMTU3LTAuNDQzLTAuMjY3ek0xNC43ODcgMTkuNzY1aC0wLjAyN2MtMC4wNzIgMC4wMDUtMC4xNzIgMC4wMzItMC4zNzUgMC4yNTEtMC40NjQgMC41Mi0wLjYyNSAwLjg0OC0xLjAwNSAxLjE1MS0wLjM4NSAwLjMwNy0wLjg4IDAuNDY5LTEuODc1IDAuNjcyLTAuMzEyIDAuMDYzLTAuNDk1IDAuMTM1LTAuNjE1IDAuMTkyIDAuMDM2IDAuMDMyIDAuMDM2IDAuMDQzIDAuMDkzIDAuMDY4IDAuMTQ3IDAuMDg0IDAuMzMzIDAuMTUyIDAuNDg1IDAuMTkzIDAuNDI3IDAuMTA0IDEuMTI0IDAuMjI5IDEuODU5IDAuMTA0IDAuNzI5LTAuMTI1IDEuNDg5LTAuNDc1IDIuMTQxLTEuMzg1IDAuMTE1LTAuMTU2IDAuMTI0LTAuMzkxIDAuMDMxLTAuNjQxLTAuMDkzLTAuMjQ0LTAuMjk3LTAuNDYzLTAuNDM3LTAuNTItMC4wODktMC4wNDMtMC4xODMtMC4wNjgtMC4yNzYtMC4wODR6Ii8+JiN4YTs8L3N2Zz4=;" parent="lpeds_Ub-o3JxPmcsXHy-7" vertex="1">
          <mxGeometry x="25" width="70" height="70" as="geometry" />
        </mxCell>
        <mxCell id="lpeds_Ub-o3JxPmcsXHy-6" value="Database Storage" style="text;whiteSpace=wrap;html=1;align=center;verticalAlign=middle;" parent="lpeds_Ub-o3JxPmcsXHy-7" vertex="1">
          <mxGeometry y="75" width="120" height="20" as="geometry" />
        </mxCell>
        <mxCell id="lpeds_Ub-o3JxPmcsXHy-9" value="" style="group" parent="SOyPLKrSQ2KFvX7laYr--1" vertex="1" connectable="0">
          <mxGeometry x="360" y="385" width="90" height="90" as="geometry" />
        </mxCell>
        <mxCell id="SOyPLKrSQ2KFvX7laYr--8" value="" style="shape=image;verticalLabelPosition=bottom;labelBackgroundColor=none;verticalAlign=top;aspect=fixed;imageAspect=0;image=data:image/svg+xml,PHN2ZyB4bWxucz0iaHR0cDovL3d3dy53My5vcmcvMjAwMC9zdmciIHZpZXdCb3g9IjAgMCAyNCAyNCIgcm9sZT0iaW1nIj48dGl0bGU+R3VuaWNvcm48L3RpdGxlPjxwYXRoIGQ9Ik0xMC4xNDUgMjAuMDE0Yy0uMjY2LS4wODUtLjI2Ny0uMTIyLS4wMjItLjg2NS4yNDQtLjc0My4xMzItMS40MzItLjMyLTEuOTc0LS42MTctLjczNy0uOTE0LTEuMzY2LTEuMDA5LTIuMTM1LS4wOC0uNjYtLjEwNy0uNzEzLS4zNzYtLjc2NC0uMTgtLjAzNS0uNDMuMDM0LTEuMDIzLjI4MS0uODY0LjM2LTEuMDcuNTItMS4yNzMuOTgtLjEwOC4yNDItLjEyLjM4Ny0uMDYuNjY3LjA3NS4zNDIuMzc4Ljg5Mi40OTQuODkzLjAzIDAgLjE5Ni4xMTQuMzY4LjI1Mi4yODcuMjMuMzA3LjI3LjIyNS40NTgtLjE3Ni40MDgtLjU5NS45MDItLjc2NC45MDItLjA5NSAwLS40ODItLjI3Mi0uOTEtLjYzNy0uODM2LS43MTctLjg3Mi0uNzktLjk2LTEuOTY1LS4xLTEuNDAzLjI0NC0yLjA1OCAxLjc4LTMuMzc1bC45NjQtLjgyNy4wNjItLjVjLjA2My0uNTE4LS4wMjYtMS43NDgtLjE3Ny0yLjQyNy0uMDktLjQtLjM4Mi0uNzgzLS42Ni0uODYtLjMwMy0uMDg0LS40OC4wOS0uNzEyLjY5NC0uMjUuNjU0LS40ODYuODgyLS45Mi44ODItLjI3IDAtLjUyLS4xNzMtLjY5NC0uNDc3QzQuMDMzIDkgMy45NiA3LjY5MSA0LjAzNSA3LjAwMmMuMDM2LS4zMy4wMzgtLjY2Ni4wMDUtLjc0NS0uMDU0LS4xMjgtLjUyLS40MDUtMS42Mi0uOTYyYTQuMzQzIDQuMzQzIDAgMCAxLS41MTgtLjMwMyAzLjA1MyAzLjA1MyAwIDAgMC0uNDktLjI2N0MuOTk0IDQuNTQtLjA5NSAzLjkwMy4wMDcgMy45MDNjLjE5MyAwIDEuMDEuMjUyIDEuNDQ2LjQ0NS4yNjYuMTE4LjUyLjIxNS41NjUuMjE1LjA0NSAwIC41NTguMTY1IDEuMTQuMzY2LjU4LjIwMiAxLjExMS4zNjcgMS4xOC4zNjcuMTYgMCAuMTg1LS4xNC4xMzQtLjc0Ni0uMDI0LS4yNzUtLjAyMy0uNS4wMDItLjVzLjEzMi4wNTMuMjM4LjExOGMuMzI0LjE5OCAxLjAyLjMyIDEuODQuMzIuNzgzLjAwMiAxLjgwNi4xNTcgMi4xOTYuMzM1LjU2LjI1NCAxLjIxMSAxLjA1IDIuMDM2IDIuNDkuNTc0IDEuMDAyIDEuMTkgMS40MjYgMi4wNzMgMS40MjcuMzU3IDAgMS4zMS0uMTQ3IDIuNi0uNCAxLjA2My0uMjEgMi40NjctLjI1OSAzLjAxMi0uMTAzLjY2NS4xOSAxLjU0NS43IDIuMjcgMS4zMTQuNjguNTc2Ljc4Ni43MDQgMS4yMDQgMS40NjguNS45MTIgMS4wNSAyLjIwNyAxLjU0IDMuNjIyLjA3LjIwMi4yMTYuNTQuMzI2Ljc1My4yOTQuNTY4LjI4LjYwMy0uMjU1LjYwMy0uNTggMC0uODUzLS4wOTItMS4yMzMtLjQxNS0uMzY1LS4zMS0uNDYtLjUtMS4wMzItMi4wNS0uMjkyLS43OTYtLjU3Ny0xLjI3My0uNzYtMS4yNzMtLjEyNCAwLS4zNzYuODUyLS4zNzYgMS4yNzMgMCAuMy4xODcuNzAyLjY3IDEuNDQ3Ljc4OCAxLjIxIDEuMjAyIDIuOTIyIDEuMDM2IDQuMjhsLS4wNy41ODYtLjUyNi4wMjJjLS44MjUuMDM0LS44MTcuMDQ2LS44MTctMS4xMzUgMC0xLjI1Ny0uMDg1LTEuNTI5LS42NC0yLjAzNS0uMjMtLjIxLS43NDgtLjgxLTEuMTQ5LTEuMzMtLjQwMi0uNTItLjc4Ni0uOTQ2LS44NTQtLjk0Ni0uMTU4IDAtLjIzNi40MjgtLjI0NCAxLjMzMi0uMDA2LjU5NS0uMDMuNjk2LS4yMDUuODgtLjQ3Ni40OTctLjgxIDEuNDAzLTEuMDE2IDIuNzU0LS4wNDYuMy0uMDg1LjM1NS0uMjc5LjM5OC0uMjg1LjA2NC0xLjA3NS4wNzUtMS4xNDMuMDE1LS4wNTktLjA1LjA0NC0uODYzLjI3OC0yLjE5LjA4OC0uNTA0LjE4NS0xLjE4LjIxNC0xLjUwMy4wNTMtLjU3NC0uMDY1LTEuNjUtLjIwNC0xLjg2Ny0uMDU4LS4wOS0uMzUzLS4xMS0xLjczMi0uMTE2LS45MTUtLjAwMy0xLjkxOC0uMDMzLTIuMjMtLjA2NmwtLjU2NS0uMDZ2LjI1YzAgLjI3LjA3LjUwNi41MyAxLjgyMi4xNjIuNDY0LjM5NyAxLjE3LjUyMyAxLjU3bC4yMjcuNzI4LS4xOTIuNTkyYTYuMTEgNi4xMSAwIDAgMS0uMzQ4Ljg2N2MtLjE1Mi4yNjYtLjE3LjI3NC0uNTk1LjI3YTIuOTcgMi45NyAwIDAgMS0uNjc3LS4wODN6Ii8+PC9zdmc+;" parent="lpeds_Ub-o3JxPmcsXHy-9" vertex="1">
          <mxGeometry x="25" width="70" height="70" as="geometry" />
        </mxCell>
        <mxCell id="lpeds_Ub-o3JxPmcsXHy-8" value="Webserver" style="text;whiteSpace=wrap;html=1;align=center;verticalAlign=middle;" parent="lpeds_Ub-o3JxPmcsXHy-9" vertex="1">
          <mxGeometry y="75" width="120" height="20" as="geometry" />
        </mxCell>
        <mxCell id="lpeds_Ub-o3JxPmcsXHy-10" value="" style="edgeStyle=orthogonalEdgeStyle;rounded=0;orthogonalLoop=1;jettySize=auto;html=1;startArrow=classic;startFill=1;" parent="SOyPLKrSQ2KFvX7laYr--1" source="KVADSGi9eFTHOu3GzwZl-0" target="lpeds_Ub-o3JxPmcsXHy-8" edge="1">
          <mxGeometry relative="1" as="geometry">
            <mxPoint x="420" y="518.75" as="sourcePoint" />
          </mxGeometry>
        </mxCell>
        <mxCell id="lpeds_Ub-o3JxPmcsXHy-11" value="" style="group" parent="SOyPLKrSQ2KFvX7laYr--1" vertex="1" connectable="0">
          <mxGeometry x="360" y="182.5" width="90" height="90" as="geometry" />
        </mxCell>
        <mxCell id="lpeds_Ub-o3JxPmcsXHy-12" value="" style="shape=image;verticalLabelPosition=bottom;labelBackgroundColor=none;verticalAlign=top;aspect=fixed;imageAspect=0;image=data:image/svg+xml,PHN2ZyB4bWxucz0iaHR0cDovL3d3dy53My5vcmcvMjAwMC9zdmciIHZpZXdCb3g9IjAgMCAyNCAyNCIgcm9sZT0iaW1nIj48dGl0bGU+R3VuaWNvcm48L3RpdGxlPjxwYXRoIGQ9Ik0xMC4xNDUgMjAuMDE0Yy0uMjY2LS4wODUtLjI2Ny0uMTIyLS4wMjItLjg2NS4yNDQtLjc0My4xMzItMS40MzItLjMyLTEuOTc0LS42MTctLjczNy0uOTE0LTEuMzY2LTEuMDA5LTIuMTM1LS4wOC0uNjYtLjEwNy0uNzEzLS4zNzYtLjc2NC0uMTgtLjAzNS0uNDMuMDM0LTEuMDIzLjI4MS0uODY0LjM2LTEuMDcuNTItMS4yNzMuOTgtLjEwOC4yNDItLjEyLjM4Ny0uMDYuNjY3LjA3NS4zNDIuMzc4Ljg5Mi40OTQuODkzLjAzIDAgLjE5Ni4xMTQuMzY4LjI1Mi4yODcuMjMuMzA3LjI3LjIyNS40NTgtLjE3Ni40MDgtLjU5NS45MDItLjc2NC45MDItLjA5NSAwLS40ODItLjI3Mi0uOTEtLjYzNy0uODM2LS43MTctLjg3Mi0uNzktLjk2LTEuOTY1LS4xLTEuNDAzLjI0NC0yLjA1OCAxLjc4LTMuMzc1bC45NjQtLjgyNy4wNjItLjVjLjA2My0uNTE4LS4wMjYtMS43NDgtLjE3Ny0yLjQyNy0uMDktLjQtLjM4Mi0uNzgzLS42Ni0uODYtLjMwMy0uMDg0LS40OC4wOS0uNzEyLjY5NC0uMjUuNjU0LS40ODYuODgyLS45Mi44ODItLjI3IDAtLjUyLS4xNzMtLjY5NC0uNDc3QzQuMDMzIDkgMy45NiA3LjY5MSA0LjAzNSA3LjAwMmMuMDM2LS4zMy4wMzgtLjY2Ni4wMDUtLjc0NS0uMDU0LS4xMjgtLjUyLS40MDUtMS42Mi0uOTYyYTQuMzQzIDQuMzQzIDAgMCAxLS41MTgtLjMwMyAzLjA1MyAzLjA1MyAwIDAgMC0uNDktLjI2N0MuOTk0IDQuNTQtLjA5NSAzLjkwMy4wMDcgMy45MDNjLjE5MyAwIDEuMDEuMjUyIDEuNDQ2LjQ0NS4yNjYuMTE4LjUyLjIxNS41NjUuMjE1LjA0NSAwIC41NTguMTY1IDEuMTQuMzY2LjU4LjIwMiAxLjExMS4zNjcgMS4xOC4zNjcuMTYgMCAuMTg1LS4xNC4xMzQtLjc0Ni0uMDI0LS4yNzUtLjAyMy0uNS4wMDItLjVzLjEzMi4wNTMuMjM4LjExOGMuMzI0LjE5OCAxLjAyLjMyIDEuODQuMzIuNzgzLjAwMiAxLjgwNi4xNTcgMi4xOTYuMzM1LjU2LjI1NCAxLjIxMSAxLjA1IDIuMDM2IDIuNDkuNTc0IDEuMDAyIDEuMTkgMS40MjYgMi4wNzMgMS40MjcuMzU3IDAgMS4zMS0uMTQ3IDIuNi0uNCAxLjA2My0uMjEgMi40NjctLjI1OSAzLjAxMi0uMTAzLjY2NS4xOSAxLjU0NS43IDIuMjcgMS4zMTQuNjguNTc2Ljc4Ni43MDQgMS4yMDQgMS40NjguNS45MTIgMS4wNSAyLjIwNyAxLjU0IDMuNjIyLjA3LjIwMi4yMTYuNTQuMzI2Ljc1My4yOTQuNTY4LjI4LjYwMy0uMjU1LjYwMy0uNTggMC0uODUzLS4wOTItMS4yMzMtLjQxNS0uMzY1LS4zMS0uNDYtLjUtMS4wMzItMi4wNS0uMjkyLS43OTYtLjU3Ny0xLjI3My0uNzYtMS4yNzMtLjEyNCAwLS4zNzYuODUyLS4zNzYgMS4yNzMgMCAuMy4xODcuNzAyLjY3IDEuNDQ3Ljc4OCAxLjIxIDEuMjAyIDIuOTIyIDEuMDM2IDQuMjhsLS4wNy41ODYtLjUyNi4wMjJjLS44MjUuMDM0LS44MTcuMDQ2LS44MTctMS4xMzUgMC0xLjI1Ny0uMDg1LTEuNTI5LS42NC0yLjAzNS0uMjMtLjIxLS43NDgtLjgxLTEuMTQ5LTEuMzMtLjQwMi0uNTItLjc4Ni0uOTQ2LS44NTQtLjk0Ni0uMTU4IDAtLjIzNi40MjgtLjI0NCAxLjMzMi0uMDA2LjU5NS0uMDMuNjk2LS4yMDUuODgtLjQ3Ni40OTctLjgxIDEuNDAzLTEuMDE2IDIuNzU0LS4wNDYuMy0uMDg1LjM1NS0uMjc5LjM5OC0uMjg1LjA2NC0xLjA3NS4wNzUtMS4xNDMuMDE1LS4wNTktLjA1LjA0NC0uODYzLjI3OC0yLjE5LjA4OC0uNTA0LjE4NS0xLjE4LjIxNC0xLjUwMy4wNTMtLjU3NC0uMDY1LTEuNjUtLjIwNC0xLjg2Ny0uMDU4LS4wOS0uMzUzLS4xMS0xLjczMi0uMTE2LS45MTUtLjAwMy0xLjkxOC0uMDMzLTIuMjMtLjA2NmwtLjU2NS0uMDZ2LjI1YzAgLjI3LjA3LjUwNi41MyAxLjgyMi4xNjIuNDY0LjM5NyAxLjE3LjUyMyAxLjU3bC4yMjcuNzI4LS4xOTIuNTkyYTYuMTEgNi4xMSAwIDAgMS0uMzQ4Ljg2N2MtLjE1Mi4yNjYtLjE3LjI3NC0uNTk1LjI3YTIuOTcgMi45NyAwIDAgMS0uNjc3LS4wODN6Ii8+PC9zdmc+;" parent="lpeds_Ub-o3JxPmcsXHy-11" vertex="1">
          <mxGeometry x="25" width="70" height="70" as="geometry" />
        </mxCell>
        <mxCell id="lpeds_Ub-o3JxPmcsXHy-13" value="Webserver Exporter" style="text;whiteSpace=wrap;html=1;align=center;verticalAlign=middle;" parent="lpeds_Ub-o3JxPmcsXHy-11" vertex="1">
          <mxGeometry y="75" width="120" height="20" as="geometry" />
        </mxCell>
        <mxCell id="lpeds_Ub-o3JxPmcsXHy-19" value="" style="group" parent="SOyPLKrSQ2KFvX7laYr--1" vertex="1" connectable="0">
          <mxGeometry x="45" y="180" width="110" height="95" as="geometry" />
        </mxCell>
        <mxCell id="lpeds_Ub-o3JxPmcsXHy-16" value="" style="shape=image;verticalLabelPosition=bottom;labelBackgroundColor=default;verticalAlign=top;aspect=fixed;imageAspect=0;image=data:image/svg+xml,PHN2ZyB4bWxucz0iaHR0cDovL3d3dy53My5vcmcvMjAwMC9zdmciIHZpZXdCb3g9IjAgMCAyNCAyNCIgcm9sZT0iaW1nIj48dGl0bGU+Q2VsZXJ5PC90aXRsZT48cGF0aCBkPSJNMi4zMDMgMEEyLjI5OCAyLjI5OCAwIDAgMCAwIDIuMzAzdjE5LjM5NEEyLjI5OCAyLjI5OCAwIDAgMCAyLjMwMyAyNGgxOS4zOTRBMi4yOTggMi4yOTggMCAwIDAgMjQgMjEuNjk3VjIuMzAzQTIuMjk4IDIuMjk4IDAgMCAwIDIxLjY5NyAwem04LjE3NyAzLjA3MmM0LjA5OCAwIDcuMDI4IDEuNDM4IDcuNjggMS43NjRsLTEuMTk0IDIuNTVjLTIuNDQyLTEuMDU3LTQuOTkzLTEuNDEtNS42NzItMS40MS0xLjU3NCAwLTIuMTcuOTIyLTIuMTcgMS43NjN2OC40OTRjMCAuODY5LjU5NiAxLjc5MSAyLjE3IDEuNzkxLjY3OSAwIDMuMjMtLjM4IDUuNjcyLTEuNDFsMS4xOTQgMi40OTZjLS40MzUuMjcxLTMuNjM3IDEuODE4LTcuNjggMS44MTgtMS4xMTIgMC00LjY0LS4yNDQtNC42NC00LjY0VjcuNzEzYzAtNC4zOTcgMy41MjgtNC42NCA0LjY0LTQuNjR6Ii8+PC9zdmc+;" parent="lpeds_Ub-o3JxPmcsXHy-19" vertex="1">
          <mxGeometry x="25" width="70" height="70" as="geometry" />
        </mxCell>
        <mxCell id="lpeds_Ub-o3JxPmcsXHy-17" value="Task Exporter" style="text;whiteSpace=wrap;html=1;align=center;verticalAlign=middle;" parent="lpeds_Ub-o3JxPmcsXHy-19" vertex="1">
          <mxGeometry y="75" width="120" height="20" as="geometry" />
        </mxCell>
        <mxCell id="lpeds_Ub-o3JxPmcsXHy-20" value="" style="edgeStyle=orthogonalEdgeStyle;rounded=0;orthogonalLoop=1;jettySize=auto;html=1;" parent="SOyPLKrSQ2KFvX7laYr--1" source="SOyPLKrSQ2KFvX7laYr--19" target="lpeds_Ub-o3JxPmcsXHy-17" edge="1">
          <mxGeometry relative="1" as="geometry" />
        </mxCell>
        <mxCell id="lpeds_Ub-o3JxPmcsXHy-21" value="" style="group" parent="SOyPLKrSQ2KFvX7laYr--1" vertex="1" connectable="0">
          <mxGeometry x="210" y="180" width="130" height="90" as="geometry" />
        </mxCell>
        <mxCell id="lpeds_Ub-o3JxPmcsXHy-22" value="" style="shape=image;verticalLabelPosition=bottom;labelBackgroundColor=default;verticalAlign=top;aspect=fixed;imageAspect=0;image=data:image/svg+xml,PHN2ZyB2aWV3Qm94PSIwIDAgMzIgMzIiIGhlaWdodD0iMzIiIHdpZHRoPSIzMiIgeG1sbnM9Imh0dHA6Ly93d3cudzMub3JnLzIwMDAvc3ZnIj4mI3hhOyAgPHBhdGggZD0iTTIyLjgzOSAwYy0xLjI0NSAwLjAxMS0yLjQ3OSAwLjE4OC0zLjY3NyAwLjUzNmwtMC4wODMgMC4wMjdjLTAuNzUxLTAuMTMxLTEuNTE2LTAuMjAzLTIuMjc2LTAuMjE5LTEuNTczLTAuMDI3LTIuOTIzIDAuMzUzLTQuMDExIDAuOTg5LTEuMDczLTAuMzY5LTMuMjk3LTEuMDE2LTUuNjQxLTAuODg1LTEuNjI5IDAuMDg4LTMuNDExIDAuNTgzLTQuNzM1IDEuOTc5LTEuMzEyIDEuMzkxLTIuMDA5IDMuNTQ3LTEuODY0IDYuNDg1IDAuMDQxIDAuODA3IDAuMjcxIDIuMTI0IDAuNjU2IDMuODM3IDAuMzggMS43MDkgMC45MTcgMy43MDkgMS41ODkgNS41MzcgMC42NzIgMS44MjMgMS40MDUgMy40NjMgMi41NTIgNC41NzcgMC41NzIgMC41NTcgMS4zNjQgMS4wMzIgMi4yOTYgMC45OTEgMC42NTItMC4wMjcgMS4yNC0wLjMxMyAxLjc1MS0wLjczNSAwLjI0OSAwLjMyOCAwLjUxNiAwLjQ2OCAwLjc1NSAwLjU5OSAwLjMwOCAwLjE2NyAwLjU5OSAwLjI4MSAwLjkwNyAwLjM1NSAwLjU1MiAwLjE0IDEuNDk1IDAuMzIzIDIuNTk5IDAuMTM1IDAuMzc1LTAuMDYzIDAuNzcxLTAuMTg3IDEuMTY3LTAuMzU5IDAuMDE2IDAuNDM3IDAuMDMyIDAuODY5IDAuMDQ3IDEuMzA3IDAuMDU3IDEuMzggMC4wOTUgMi42NTYgMC41MDUgMy43NzYgMC4wNjggMC4xODMgMC4yNTEgMS4xMiAwLjk2OSAxLjk1MyAwLjcyNCAwLjgzMyAyLjEyOSAxLjM0OSAzLjczOSAxLjAwNSAxLjEzMS0wLjI0IDIuNTczLTAuNjc3IDMuNTMyLTIuMDQxIDAuOTQ4LTEuMzQ0IDEuMzc1LTMuMjc2IDEuNDU5LTYuNDEyIDAuMDIwLTAuMTcyIDAuMDQ3LTAuMzEyIDAuMDcyLTAuNDQ4bDAuMjI0IDAuMDIxaDAuMDI3YzEuMjA4IDAuMDUyIDIuNTIxLTAuMTIgMy42Mi0wLjYzMSAwLjk2OC0wLjQ0OCAxLjcwMy0wLjkwMSAyLjIzOS0xLjcwOCAwLjEzMS0wLjE5OSAwLjI4MS0wLjQ0MyAwLjMxOS0wLjg2IDAuMDQxLTAuNDExLTAuMTk5LTEuMDYzLTAuNTk1LTEuMzY0LTAuNzkxLTAuNjA0LTEuMjkxLTAuMzc1LTEuODI4LTAuMjYtMC41MjUgMC4xMTUtMS4wNjMgMC4xNzYtMS41OTkgMC4xOTIgMS41NDEtMi41OTMgMi42NDUtNS4zNTMgMy4yNzYtNy43OTIgMC4zNzUtMS40NDMgMC41ODQtMi43NzEgMC41OTktMy45MzIgMC4wMjEtMS4xNjEtMC4wNzctMi4xODctMC43NzEtMy4wNzctMi4xNzctMi43NzYtNS4yMzUtMy41NDgtNy41OTktMy41NzMtMC4wNzMgMC0wLjE0NSAwLTAuMjE5IDB6TTIyLjc3NiAwLjg1NWMyLjIzNS0wLjAyMSA1LjA5MyAwLjYwNCA3LjE0NSAzLjIyOCAwLjQ2NCAwLjU4OSAwLjYgMS40NDggMC41ODQgMi41MTFzLTAuMjEzIDIuMzI4LTAuNTczIDMuNzE5Yy0wLjY5MiAyLjY5OS0yLjAxMSA1LjgzMy0zLjg1OSA4LjY1MiAwLjA2MyAwLjA0NyAwLjEzNSAwLjA4OCAwLjIwOCAwLjExNSAwLjM4NSAwLjE2MSAxLjI2NSAwLjI5NiAzLjAyNS0wLjA2MyAwLjQ0My0wLjA5NSAwLjc2Ny0wLjE1NiAxLjEwNSAwLjA5OSAwLjE2NyAwLjE0IDAuMjU1IDAuMzQ5IDAuMjQ0IDAuNTY4LTAuMDIwIDAuMTYxLTAuMDc3IDAuMzE3LTAuMTc3IDAuNDQ4LTAuMzM5IDAuNTA5LTEuMDA5IDAuOTk1LTEuODY5IDEuMzk2LTAuNzYgMC4zNTMtMS44NTUgMC41MzYtMi44MTcgMC41NDctMC40ODkgMC4wMDUtMC45MzctMC4wMzItMS4zMTktMC4xNTJsLTAuMDIwLTAuMDA0Yy0wLjE0NyAxLjQxMS0wLjQ4NCA0LjIwMy0wLjcwNCA1LjQ3My0wLjE3NiAxLjAyNS0wLjQ4NCAxLjg0NC0xLjA3MiAyLjQ1My0wLjU4OSAwLjYxNS0xLjQxNyAwLjk3OS0yLjUzNyAxLjIxOS0xLjM4NSAwLjI5Ny0yLjM5MS0wLjAyMS0zLjA0MS0wLjU2OHMtMC45NDgtMS4yNzYtMS4xMjUtMS43MTljLTAuMTI0LTAuMzA3LTAuMTg3LTAuNzAzLTAuMjQ5LTEuMjM1LTAuMDYzLTAuNTMxLTAuMTA0LTEuMTc3LTAuMTM2LTEuOTExLTAuMDQxLTEuMTItMC4wNTctMi4yNC0wLjA0MS0zLjM2NS0wLjU3NyAwLjUzMi0xLjI5NiAwLjg4LTIuMDY4IDEuMDE2LTAuOTIxIDAuMTU2LTEuNzM5IDAtMi4yMjgtMC4xMi0wLjI0LTAuMDYzLTAuNDc1LTAuMTUxLTAuNjkzLTAuMjcxLTAuMjI5LTAuMTItMC40NDMtMC4yNTUtMC41ODgtMC41MjctMC4wODQtMC4xNTYtMC4xMDktMC4zMzctMC4wNzMtMC41MDkgMC4wNDEtMC4xNzcgMC4xNDUtMC4zMjggMC4yODctMC40NDMgMC4yNjUtMC4yMTUgMC42MTUtMC4zMzMgMS4xNC0wLjQ0MyAwLjk1OS0wLjE5OSAxLjI5Ny0wLjMzMyAxLjUtMC40OTYgMC4xNzItMC4xMzUgMC4zNzEtMC40MTYgMC43MTMtMC44MjggMC0wLjAxNSAwLTAuMDM2LTAuMDA1LTAuMDUyLTAuNjE5LTAuMDIwLTEuMjI0LTAuMTgxLTEuNzcxLTAuNDc5LTAuMTk3IDAuMjA4LTEuMjI0IDEuMjkyLTIuNDY4IDIuNzkyLTAuNTIxIDAuNjI0LTEuMDk5IDAuOTg0LTEuNzEzIDEuMDExLTAuNjA5IDAuMDI1LTEuMTYzLTAuMjgxLTEuNjMxLTAuNzM1LTAuOTM3LTAuOTEyLTEuNjg4LTIuNDgtMi4zMzktNC4yNTFzLTEuMTc3LTMuNzQ0LTEuNTU3LTUuNDIxYy0wLjM3NS0xLjY4My0wLjU5OS0zLjAzNy0wLjYzMS0zLjY4OC0wLjE0LTIuNzc2IDAuNTExLTQuNjQ1IDEuNjI1LTUuODI4czIuNjQxLTEuNjI1IDQuMTMxLTEuNzEzYzIuNjcyLTAuMTUxIDUuMjEzIDAuNzgxIDUuNzI0IDAuOTc5IDAuOTg5LTAuNjcyIDIuMjY1LTEuMDg4IDMuODU5LTEuMDYzIDAuNzU2IDAuMDExIDEuNTA1IDAuMTA5IDIuMjQgMC4yOTJsMC4wMjctMC4wMTZjMC4zMjMtMC4xMDkgMC42NTEtMC4yMDggMC45ODQtMC4yOCAwLjkwNy0wLjIxNSAxLjgzMy0wLjMyNCAyLjc2LTAuMzM5ek0yMi45NzkgMS43NDVoLTAuMTk3Yy0wLjc2IDAuMDA5LTEuNTI3IDAuMDk5LTIuMjcxIDAuMjYgMS42NjEgMC43MzUgMi45MTYgMS44NjQgMy44MDEgMyAwLjYxNSAwLjc4MSAxLjEyIDEuNjQgMS41MDUgMi41NTcgMC4xNTIgMC4zNTUgMC4yNTEgMC42NTEgMC4zMDMgMC44OCAwLjAzMSAwLjExNSAwLjA0NyAwLjIxMyAwLjA1NyAwLjMxMiAwIDAuMDUyIDAuMDA1IDAuMTA1LTAuMDIxIDAuMTkzIDAgMC4wMDUtMC4wMDUgMC4wMTYtMC4wMDUgMC4wMjEgMC4wNDMgMS4xNjctMC4yNDkgMS45NTctMC4yODcgMy4wNzItMC4wMjUgMC44MDggMC4xODMgMS43NTYgMC4yMzUgMi43OTIgMC4wNDcgMC45NzMtMC4wNzIgMi4wNDEtMC43MDMgMy4wOTMgMC4wNTIgMC4wNjMgMC4wOTkgMC4xMjUgMC4xNTEgMC4xOTMgMS42NzItMi42MzYgMi44OC01LjU0NyAzLjUyMS04LjAzMiAwLjM0NC0xLjMzOSAwLjUyNS0yLjU1MiAwLjU0MS0zLjUwOSAwLjAxNi0wLjk1OS0wLjE2MS0xLjY1Ny0wLjM5MS0xLjk0OC0xLjc5Mi0yLjI4Ny00LjIxMy0yLjg3MS02LjI0LTIuODg1ek0xNi41ODggMi4wODhjLTEuNTcyIDAuMDA1LTIuNzAzIDAuNDgtMy41NjEgMS4xOTMtMC44ODcgMC43NC0xLjQ4IDEuNzQ1LTEuODY1IDIuNzgxLTAuNDY0IDEuMjI0LTAuNjI1IDIuNDExLTAuNjg4IDMuMjE5bDAuMDIxLTAuMDExYzAuNDc1LTAuMjY1IDEuMDk5LTAuNTM2IDEuNzcxLTAuNjg3IDAuNjY3LTAuMTU3IDEuMzkxLTAuMjA0IDIuMDQxIDAuMDUyIDAuNjU3IDAuMjQ5IDEuMTkzIDAuODQ4IDEuMzkxIDEuNzQ5IDAuOTM5IDQuMzQ0LTAuMjkxIDUuOTU5LTAuNzQ0IDcuMTc3LTAuMTcyIDAuNDQzLTAuMzIzIDAuODkxLTAuNDQzIDEuMzQ5IDAuMDU3LTAuMDExIDAuMTE1LTAuMDI3IDAuMTcyLTAuMDMyIDAuMzIzLTAuMDI1IDAuNTcyIDAuMDc5IDAuNzE5IDAuMTQxIDAuNDU5IDAuMTkyIDAuNzcxIDAuNTg4IDAuOTQzIDEuMDQxIDAuMDQxIDAuMTIgMC4wNzIgMC4yNDQgMC4wOTMgMC4zOCAwLjAxNiAwLjA1MiAwLjAyNyAwLjEwOSAwLjAyNyAwLjE2Ny0wLjA1MiAxLjY2MS0wLjA0OCAzLjMyMyAwLjAxNSA0Ljk4NCAwLjAzMiAwLjcxOSAwLjA3OSAxLjM0OSAwLjEzNiAxLjg0OSAwLjA1NyAwLjQ5NSAwLjEzNSAwLjg3NSAwLjE4OCAxLjAwNSAwLjE3MSAwLjQyNyAwLjQyMSAwLjk4NCAwLjg3NSAxLjM2NCAwLjQ0OCAwLjM4MSAxLjA5MyAwLjYzMSAyLjI3NiAwLjM4MSAxLjAyNS0wLjIyNCAxLjY1Ni0wLjUyNyAyLjA3Ny0wLjk2NCAwLjQyMy0wLjQ0MyAwLjY3Mi0xLjA1MiAwLjgzMy0xLjk4NCAwLjI0NS0xLjQwMSAwLjcyOS01LjQ2NCAwLjc4Ny02LjIyNC0wLjAyNS0wLjU3OSAwLjA1Ny0xLjAyMSAwLjI0NS0xLjM2IDAuMTg3LTAuMzQ0IDAuNDc5LTAuNTU3IDAuNzM1LTAuNjcyIDAuMTI0LTAuMDU3IDAuMjQ0LTAuMDkzIDAuMzQzLTAuMTI1LTAuMTA0LTAuMTQ1LTAuMjEzLTAuMjkxLTAuMzIzLTAuNDMyLTAuMzY0LTAuNDQzLTAuNjY3LTAuOTM3LTAuODkxLTEuNDYzLTAuMTA0LTAuMjItMC4yMTktMC40MzktMC4zNDQtMC42NDctMC4xNzYtMC4zMTctMC40LTAuNzE5LTAuNjM1LTEuMTcyLTAuNDY5LTAuODk2LTAuOTc5LTEuOTg5LTEuMjQ1LTMuMDUyLTAuMjY1LTEuMDYzLTAuMzAxLTIuMTYxIDAuMzc2LTIuOTMyIDAuNTk5LTAuNjg4IDEuNjU2LTAuOTczIDMuMjMzLTAuODEyLTAuMDQ3LTAuMTQxLTAuMDcyLTAuMjYxLTAuMTUxLTAuNDQzLTAuMzU5LTAuODQ0LTAuODI4LTEuNjM2LTEuMzkxLTIuMzU1LTEuMzM5LTEuNzEzLTMuNTExLTMuNDEyLTYuODU5LTMuNDY5ek03LjczNSAyLjE1NmMtMC4xNjcgMC0wLjMzOSAwLjAwNS0wLjUwNSAwLjAxNi0xLjM0OSAwLjA3OS0yLjYyIDAuNDY4LTMuNTMyIDEuNDMyLTAuOTExIDAuOTY5LTEuNTA5IDIuNTQ3LTEuMzggNS4xNjcgMC4wMjcgMC41IDAuMjQgMS44ODUgMC42MDkgMy41MzYgMC4zNzEgMS42NTIgMC44OTYgMy41OTUgMS41MjcgNS4zMTMgMC42MjkgMS43MTMgMS4zOTEgMy4yMDggMi4xMiAzLjkxNiAwLjM2NCAwLjM0OSAwLjY4MSAwLjQ5NSAwLjk2OCAwLjQ4NSAwLjI4Ny0wLjAxNiAwLjYzNi0wLjE4MyAxLjA2My0wLjY5MyAwLjc3Ni0wLjkzNyAxLjU3OS0xLjg0NCAyLjQxMi0yLjcyOS0xLjE5OS0xLjA0Ny0xLjc4Ny0yLjYyOS0xLjU1Mi00LjIwMyAwLjEzNS0wLjk4NCAwLjE1Ni0xLjkwNyAwLjEzNS0yLjYzNi0wLjAxNS0wLjcwOC0wLjA2My0xLjE3Ni0wLjA2My0xLjQ3MyAwLTAuMDExIDAtMC4wMTYgMC0wLjAyN3YtMC4wMDVsLTAuMDA1LTAuMDA5YzAtMS41MzcgMC4yNzItMy4wNTcgMC43OTItNC41IDAuMzc1LTAuOTk2IDAuOTI4LTIgMS43Ni0yLjgxOS0wLjgxNy0wLjI3MS0yLjI3MS0wLjY3Ni0zLjg0My0wLjc1NS0wLjE2Ny0wLjAxMS0wLjMzOS0wLjAxNi0wLjUwNS0wLjAxNnpNMjQuMjY1IDkuMTk3Yy0wLjkwNSAwLjAxNi0xLjQxMSAwLjI1MS0xLjY4MSAwLjU1Mi0wLjM3NiAwLjQzMy0wLjQxMiAxLjE5My0wLjE3NyAyLjEzMSAwLjIzMyAwLjkzNyAwLjcxOSAxLjk4NCAxLjE3MiAyLjg1NSAwLjIyNCAwLjQzNyAwLjQ0MyAwLjgyOCAwLjYxOSAxLjE0NSAwLjE4MyAwLjMyMyAwLjMxMyAwLjU0NyAwLjM5MSAwLjc0NSAwLjA3MyAwLjE3NyAwLjE1NyAwLjMzMyAwLjI0IDAuNDc5IDAuMzQ5LTAuNzQgMC40MTItMS40NjQgMC4zNzUtMi4yMjQtMC4wNDctMC45MzctMC4yNjUtMS44OTYtMC4yMjktMi44NjQgMC4wMzctMS4xMzYgMC4yNjEtMS44NzYgMC4yNzctMi43NTEtMC4zMjQtMC4wNDEtMC42NTctMC4wNjgtMC45ODUtMC4wNjh6TTEzLjI4NyA5LjM1NWMtMC4yNzYgMC0wLjU1MiAwLjAzNi0wLjgyMyAwLjA5OS0wLjUzNyAwLjEzMS0xLjA1MiAwLjMyOC0xLjUzNyAwLjU5OS0wLjE2MSAwLjA4OC0wLjMxNyAwLjE4OC0wLjQ2MyAwLjMwM2wtMC4wMzIgMC4wMjVjMC4wMTEgMC4xOTkgMC4wNDcgMC42NjcgMC4wNjMgMS4zNjUgMC4wMTYgMC43NiAwIDEuNzI4LTAuMTQ1IDIuNzc2LTAuMzIzIDIuMjgxIDEuMzMzIDQuMTY3IDMuMjc2IDQuMTcyIDAuMTE1LTAuNDY5IDAuMzAxLTAuOTQ0IDAuNDg5LTEuNDQzIDAuNTQxLTEuNDU5IDEuNjA0LTIuNTIxIDAuNzA4LTYuNjc3LTAuMTQ1LTAuNjc3LTAuNDM3LTAuOTUzLTAuODM5LTEuMTA5LTAuMjI0LTAuMDc5LTAuNDU3LTAuMTE1LTAuNjk3LTAuMTA5ek0yMy44NDQgOS42MjVoMC4wNjhjMC4wODMgMC4wMDUgMC4xNjcgMC4wMTEgMC4yMzkgMC4wMzEgMC4wNjggMC4wMTYgMC4xMzEgMC4wMzcgMC4xODMgMC4wNzMgMC4wNTIgMC4wMzEgMC4wODggMC4wODMgMC4wOTkgMC4xNDV2MC4wMTFjMCAwLjA2My0wLjAxNiAwLjEyNS0wLjA0NyAwLjE4My0wLjA0MSAwLjA3Mi0wLjA4OCAwLjE0LTAuMTQ1IDAuMTk3LTAuMTM2IDAuMTUxLTAuMzE5IDAuMjUxLTAuNTE2IDAuMjgxLTAuMTkzIDAuMDI3LTAuMzg1LTAuMDI1LTAuNTQ3LTAuMTM1LTAuMDYzLTAuMDQ4LTAuMTI1LTAuMS0wLjE3Mi0wLjE1Ny0wLjA0Ny0wLjA0Ny0wLjA3My0wLjEwOS0wLjA4NC0wLjE3Mi0wLjAwNC0wLjA2MSAwLjAxMS0wLjEyNCAwLjA1Mi0wLjE3MSAwLjA0OC0wLjA0OCAwLjEtMC4wODkgMC4xNTctMC4xMiAwLjEyOS0wLjA3MyAwLjMwMS0wLjEyNSAwLjUtMC4xNTIgMC4wNzItMC4wMDkgMC4xNDUtMC4wMTUgMC4yMTMtMC4wMjB6TTEzLjQxNiA5Ljg0OWMwLjA2OCAwIDAuMTQ3IDAuMDA1IDAuMjIgMC4wMTUgMC4yMDggMC4wMzIgMC4zODUgMC4wODQgMC41MjUgMC4xNjcgMC4wNjggMC4wMzIgMC4xMzEgMC4wODQgMC4xNzcgMC4xNDEgMC4wNTIgMC4wNjMgMC4wNzcgMC4xNCAwLjA3MyAwLjIyNC0wLjAxNiAwLjA3Ny0wLjA0OCAwLjE1MS0wLjEgMC4yMDgtMC4wNTcgMC4wNjgtMC4xMTkgMC4xMjUtMC4xOTIgMC4xNzItMC4xNzIgMC4xMjUtMC4zODUgMC4xNzctMC41OTkgMC4xNTEtMC4yMTUtMC4wMzYtMC40MTItMC4xNC0wLjU1Ny0wLjMwMS0wLjA2My0wLjA2OC0wLjExNS0wLjE0MS0wLjE1Ny0wLjIxOS0wLjA0Ny0wLjA3My0wLjA2Ny0wLjE1Ni0wLjA1Ny0wLjI0IDAuMDIxLTAuMTQgMC4xNDEtMC4yMTkgMC4yNTYtMC4yNiAwLjEzMS0wLjA0MyAwLjI3MS0wLjA1NyAwLjQxMS0wLjA1MnpNMjUuNDk1IDE5LjY0aC0wLjAwNWMtMC4xOTIgMC4wNzMtMC4zNTMgMC4xLTAuNDg5IDAuMTYzLTAuMTQgMC4wNTItMC4yNTEgMC4xNTYtMC4zMTcgMC4yODUtMC4wODkgMC4xNTItMC4xNTYgMC40MjMtMC4xMzYgMC44ODUgMC4wNTcgMC4wNDMgMC4xMjUgMC4wNzMgMC4xOTkgMC4wOTUgMC4yMjQgMC4wNjggMC42MDkgMC4xMTUgMS4wMzYgMC4xMDkgMC44NDktMC4wMTEgMS44OTYtMC4yMDggMi40NTMtMC40NjkgMC40NTMtMC4yMDggMC44OC0wLjQ4OSAxLjI1NS0wLjgxNy0xLjg1OSAwLjM4LTIuOTA1IDAuMjgxLTMuNTUyIDAuMDE2LTAuMTU2LTAuMDY4LTAuMzA3LTAuMTU3LTAuNDQzLTAuMjY3ek0xNC43ODcgMTkuNzY1aC0wLjAyN2MtMC4wNzIgMC4wMDUtMC4xNzIgMC4wMzItMC4zNzUgMC4yNTEtMC40NjQgMC41Mi0wLjYyNSAwLjg0OC0xLjAwNSAxLjE1MS0wLjM4NSAwLjMwNy0wLjg4IDAuNDY5LTEuODc1IDAuNjcyLTAuMzEyIDAuMDYzLTAuNDk1IDAuMTM1LTAuNjE1IDAuMTkyIDAuMDM2IDAuMDMyIDAuMDM2IDAuMDQzIDAuMDkzIDAuMDY4IDAuMTQ3IDAuMDg0IDAuMzMzIDAuMTUyIDAuNDg1IDAuMTkzIDAuNDI3IDAuMTA0IDEuMTI0IDAuMjI5IDEuODU5IDAuMTA0IDAuNzI5LTAuMTI1IDEuNDg5LTAuNDc1IDIuMTQxLTEuMzg1IDAuMTE1LTAuMTU2IDAuMTI0LTAuMzkxIDAuMDMxLTAuNjQxLTAuMDkzLTAuMjQ0LTAuMjk3LTAuNDYzLTAuNDM3LTAuNTItMC4wODktMC4wNDMtMC4xODMtMC4wNjgtMC4yNzYtMC4wODR6Ii8+JiN4YTs8L3N2Zz4=;" parent="lpeds_Ub-o3JxPmcsXHy-21" vertex="1">
          <mxGeometry x="25" width="70" height="70" as="geometry" />
        </mxCell>
        <mxCell id="lpeds_Ub-o3JxPmcsXHy-23" value="Database Storage" style="text;whiteSpace=wrap;html=1;align=center;verticalAlign=middle;" parent="lpeds_Ub-o3JxPmcsXHy-21" vertex="1">
          <mxGeometry y="75" width="120" height="20" as="geometry" />
        </mxCell>
        <mxCell id="lpeds_Ub-o3JxPmcsXHy-26" value="" style="edgeStyle=orthogonalEdgeStyle;rounded=0;orthogonalLoop=1;jettySize=auto;html=1;" parent="SOyPLKrSQ2KFvX7laYr--1" source="SOyPLKrSQ2KFvX7laYr--24" target="lpeds_Ub-o3JxPmcsXHy-23" edge="1">
          <mxGeometry relative="1" as="geometry" />
        </mxCell>
        <mxCell id="lpeds_Ub-o3JxPmcsXHy-27" value="" style="edgeStyle=orthogonalEdgeStyle;rounded=0;orthogonalLoop=1;jettySize=auto;html=1;" parent="SOyPLKrSQ2KFvX7laYr--1" source="SOyPLKrSQ2KFvX7laYr--8" target="lpeds_Ub-o3JxPmcsXHy-13" edge="1">
          <mxGeometry relative="1" as="geometry" />
        </mxCell>
        <mxCell id="lpeds_Ub-o3JxPmcsXHy-28" value="" style="edgeStyle=orthogonalEdgeStyle;rounded=0;orthogonalLoop=1;jettySize=auto;html=1;" parent="SOyPLKrSQ2KFvX7laYr--1" source="SOyPLKrSQ2KFvX7laYr--16" target="FHgDbfyR1QMbl3iw0IoY-17" edge="1">
          <mxGeometry relative="1" as="geometry" />
        </mxCell>
        <mxCell id="zK5N3sGlRaZQG15lqHpW-3" value="" style="group" parent="SOyPLKrSQ2KFvX7laYr--1" vertex="1" connectable="0">
          <mxGeometry x="205" y="830" width="120" height="90" as="geometry" />
        </mxCell>
        <mxCell id="SOyPLKrSQ2KFvX7laYr--38" value="" style="shape=image;verticalLabelPosition=bottom;labelBackgroundColor=default;verticalAlign=top;aspect=fixed;imageAspect=0;image=data:image/svg+xml,PHN2ZyB4bWxuczp4bGluaz0iaHR0cDovL3d3dy53My5vcmcvMTk5OS94bGluayIgeG1sbnM9Imh0dHA6Ly93d3cudzMub3JnLzIwMDAvc3ZnIiBwcmVzZXJ2ZUFzcGVjdFJhdGlvPSJ4TWlkWU1pZCBtZWV0IiB2aWV3Qm94PSIwIDAgMzYgMzYiIGhlaWdodD0iMzYiIHdpZHRoPSIzNiIgdmVyc2lvbj0iMS4xIj4mI3hhOyAgICA8dGl0bGU+Y2x1c3Rlci1zb2xpZDwvdGl0bGU+JiN4YTsgICAgPHBhdGggY2xhc3M9ImNsci1pLXNvbGlkIGNsci1pLXNvbGlkLXBhdGgtMSIgZD0iTTMxLjM2LDhIMjcuNVYzMkgzM1Y5LjY3QTEuNjUsMS42NSwwLDAsMCwzMS4zNiw4WiIvPjxwYXRoIGNsYXNzPSJjbHItaS1zb2xpZCBjbHItaS1zb2xpZC1wYXRoLTIiIGQ9Ik0zLDkuNjdWMzJIOC41VjhINC42NEExLjY1LDEuNjUsMCwwLDAsMyw5LjY3WiIvPjxwYXRoIGNsYXNzPSJjbHItaS1zb2xpZCBjbHItaS1zb2xpZC1wYXRoLTMiIGQ9Ik0yNC4zMiw0SDExLjY4QTEuNjgsMS42OCwwLDAsMCwxMCw1LjY4VjMySDI2VjUuNjhBMS42OCwxLjY4LDAsMCwwLDI0LjMyLDRaTTE4LDI3Ljc5QTEuNzksMS43OSwwLDEsMSwxOS44MSwyNiwxLjgsMS44LDAsMCwxLDE4LDI3Ljc5Wk0yMywxMC42SDEzVjlIMjNaIi8+JiN4YTsgICAgPHJlY3QgZmlsbC1vcGFjaXR5PSIwIiBoZWlnaHQ9IjM2IiB3aWR0aD0iMzYiIHk9IjAiIHg9IjAiLz4mI3hhOzwvc3ZnPg==;" parent="zK5N3sGlRaZQG15lqHpW-3" vertex="1">
          <mxGeometry x="25" width="70" height="70" as="geometry" />
        </mxCell>
        <mxCell id="zK5N3sGlRaZQG15lqHpW-2" value="HPC Cluster(s)" style="text;whiteSpace=wrap;html=1;verticalAlign=middle;align=center;" parent="zK5N3sGlRaZQG15lqHpW-3" vertex="1">
          <mxGeometry y="75" width="120" height="20" as="geometry" />
        </mxCell>
        <mxCell id="zK5N3sGlRaZQG15lqHpW-5" value="" style="group" parent="SOyPLKrSQ2KFvX7laYr--1" vertex="1" connectable="0">
          <mxGeometry x="360" y="830" width="120" height="90" as="geometry" />
        </mxCell>
        <mxCell id="SOyPLKrSQ2KFvX7laYr--39" value="" style="shape=image;verticalLabelPosition=bottom;labelBackgroundColor=default;verticalAlign=top;imageAspect=0;image=data:image/svg+xml,PHN2ZyBoZWlnaHQ9IjU0MCIgd2lkdGg9IjU5MCIgeG1sbnM9Imh0dHA6Ly93d3cudzMub3JnLzIwMDAvc3ZnIiB2aWV3Qm94PSIwIDAgNTkwIDU0MCI+JiN4YTs8cGF0aCBkPSJtIDI3Ni41MTg2OSwxLjM1NTk1IGMgLTEwLjAzNzQ3LDAgLTE4LjE3MTg5LDguMDc2MjMgLTE4LjE3MTg5LDE4LjA0MTg4IGwgMCwwIDAsMzQuNzI2MDQgYyAwLDkuOTU4NjQgOC4xMzQ0MiwxOC4wNDQ1MyAxOC4xNzE4OSwxOC4wNDQ1MyBsIDAsMCAzNi4wOTMzMSwwIGMgMTAuMDM3NDksMCAxOC4xODUxNSwtOC4wODU4OSAxOC4xODUxNSwtMTguMDQ0NTMgbCAwLDAgMCwtMzQuNzI2MDQgYyAwLC05Ljk2NTY1IC04LjE0NzY2LC0xOC4wNDE4OCAtMTguMTg1MTUsLTE4LjA0MTg4IGwgMCwwIC0zNi4wOTMzMSwwIHogbSA4OC43MTU2NSw1NC45NDY0OCBjIC03LjUzOTYsMCAtMTMuNjU0MTQsNi4xNzYyNiAtMTMuNjU0MTQsMTMuNzc0NDIgbCAwLDAgMCwyNi40OTg2NSBjIDAsNy42MDYwNyA2LjExNDU0LDEzLjc3NzkzIDEzLjY1NDE0LDEzLjc3NzkzIGwgMCwwIDI3LjExODAyLDAgYyA3LjU0MDQ4LDAgMTMuNjQ5NywtNi4xNzE4NiAxMy42NDk3LC0xMy43Nzc5MyBsIDAsMCAwLC0yNi40OTg2NSBjIDAsLTcuNTk4MTYgLTYuMTA5MjIsLTEzLjc3NDQyIC0xMy42NDk3LC0xMy43NzQ0MiBsIDAsMCAtMjcuMTE4MDIsMCB6IG0gLTE2OC40NTY4NSwwIGMgLTcuNTM3LDAgLTEzLjY1MjM5LDYuMTc2MjYgLTEzLjY1MjM5LDEzLjc3NDQyIGwgMCwwIDAsMjYuNDk4NjUgYyAwLDcuNjA2MDcgNi4xMTUzOSwxMy43Nzc5MyAxMy42NTIzOSwxMy43Nzc5MyBsIDAsMCAyNy4xMTYxNywwIGMgNy41MzYwNywwIDEzLjY1NDE0LC02LjE3MTg2IDEzLjY1NDE0LC0xMy43Nzc5MyBsIDAsMCAwLC0yNi40OTg2NSBjIDAsLTcuNTk4MTYgLTYuMTE4MDcsLTEzLjc3NDQyIC0xMy42NTQxNCwtMTMuNzc0NDIgbCAwLDAgLTI3LjExNjE3LDAgeiBtIDc5Ljc0MTIsMzAuMzk0NCBjIC0xMC4wMzc0NywwIC0xOC4xNzE4OSw4LjA3MTg0IC0xOC4xNzE4OSwxOC4wNDM2NSBsIDAsMCAwLDM0LjcyMzQxIGMgMCw5Ljk2MzkxIDguMTM0NDIsMTguMDQ3MTYgMTguMTcxODksMTguMDQ3MTYgbCAwLDAgMzYuMDkzMzEsMCBjIDEwLjAzNzQ5LDAgMTguMTg1MTUsLTguMDgzMjUgMTguMTg1MTUsLTE4LjA0NzE2IGwgMCwwIDAsLTM0LjcyMzQxIGMgMCwtOS45NzE4MSAtOC4xNDc2NiwtMTguMDQzNjUgLTE4LjE4NTE1LC0xOC4wNDM2NSBsIDAsMCAtMzYuMDkzMzEsMCB6IG0gMTU4LjQ3NTE5LDE2LjI3OTAxIGMgLTUuNjA3MzIsMCAtMTAuMTUyNTMsNC41ODU2MSAtMTAuMTUyNTMsMTAuMjQ4NjUgbCAwLDAgMCwxOS43MTI1MSBjIDAsNS42NTA3MiA0LjU0NTIxLDEwLjIzOTg0IDEwLjE1MjUzLDEwLjIzOTg0IGwgMCwwIDIwLjE3NDA4LDAgYyA1LjYwMzg0LDAgMTAuMTUyNTQsLTQuNTg5MTIgMTAuMTUyNTQsLTEwLjIzOTg0IGwgMCwwIDAsLTE5LjcxMjUxIGMgMCwtNS42NjMwNCAtNC41NDg3LC0xMC4yNDg2NSAtMTAuMTUyNTQsLTEwLjI0ODY1IGwgMCwwIC0yMC4xNzQwOCwwIHogbSAtMzAwLjE0MDY4LDAgYyAtNS42MDU2MywwIC0xMC4xNTYwNyw0LjU4NTYxIC0xMC4xNTYwNywxMC4yNDg2NSBsIDAsMCAwLDE5LjcxMjUxIGMgMCw1LjY1MDcyIDQuNTUwNDQsMTAuMjM5ODQgMTAuMTU2MDcsMTAuMjM5ODQgbCAwLDAgMjAuMTY3ODMsMCBjIDUuNjEyNywwIDEwLjE1Nzg2LC00LjU4OTEyIDEwLjE1Nzg2LC0xMC4yMzk4NCBsIDAsMCAwLC0xOS43MTI1MSBjIDAsLTUuNjYzMDQgLTQuNTQ1MTYsLTEwLjI0ODY1IC0xMC4xNTc4NiwtMTAuMjQ4NjUgbCAwLDAgLTIwLjE2NzgzLDAgeiBtIDIzMC4zODExNCwyMC43NDY4NyBjIC03LjUzOTYsMCAtMTMuNjU0MTQsNi4xNjY1OCAtMTMuNjU0MTQsMTMuNzY1NjIgbCAwLDAgMCwyNi41MDc0NCBjIDAsNy41OTk5MyA2LjExNDU0LDEzLjc2OTE0IDEzLjY1NDE0LDEzLjc2OTE0IGwgMCwwIDI3LjExODAyLDAgYyA3LjU0MDQ4LDAgMTMuNjQ5NywtNi4xNjkyMSAxMy42NDk3LC0xMy43NjkxNCBsIDAsMCAwLC0yNi41MDc0NCBjIDAsLTcuNTk5MDQgLTYuMTA5MjIsLTEzLjc2NTYyIC0xMy42NDk3LC0xMy43NjU2MiBsIDAsMCAtMjcuMTE4MDIsMCB6IG0gLTE2OC40NTY4NSwwIGMgLTcuNTM3LDAgLTEzLjY1MjM5LDYuMTY2NTggLTEzLjY1MjM5LDEzLjc2NTYyIGwgMCwwIDAsMjYuNTA3NDQgYyAwLDcuNTk5OTMgNi4xMTUzOSwxMy43NjkxNCAxMy42NTIzOSwxMy43NjkxNCBsIDAsMCAyNy4xMTYxNywwIGMgNy41MzYwNywwIDEzLjY1NDE0LC02LjE2OTIxIDEzLjY1NDE0LC0xMy43NjkxNCBsIDAsMCAwLC0yNi41MDc0NCBjIDAsLTcuNTk5MDQgLTYuMTE4MDcsLTEzLjc2NTYyIC0xMy42NTQxNCwtMTMuNzY1NjIgbCAwLDAgLTI3LjExNjE3LDAgeiBtIDIzOC4yMTYzOSwzMy4zOTIgYyAtNS42MDczMiwwIC0xMC4xNTI1Myw0LjU4Mjk4IC0xMC4xNTI1MywxMC4yMzg5OCBsIDAsMCAwLDE5LjcxMzM4IGMgMCw1LjY1MTYyIDQuNTQ1MjEsMTAuMjQxNjIgMTAuMTUyNTMsMTAuMjQxNjIgbCAwLDAgMjAuMTc0MDgsMCBjIDUuNjAzODQsMCAxMC4xNTI1NCwtNC41OSAxMC4xNTI1NCwtMTAuMjQxNjIgbCAwLDAgMCwtMTkuNzEzMzggYyAwLC01LjY1NiAtNC41NDg3LC0xMC4yMzg5OCAtMTAuMTUyNTQsLTEwLjIzODk4IGwgMCwwIC0yMC4xNzQwOCwwIHogbSAtMzAwLjE0MDY4LDAgYyAtNS42MDU2MywwIC0xMC4xNTYwNyw0LjU4Mjk4IC0xMC4xNTYwNywxMC4yMzg5OCBsIDAsMCAwLDE5LjcxMzM4IGMgMCw1LjY1MTYyIDQuNTUwNDQsMTAuMjQxNjIgMTAuMTU2MDcsMTAuMjQxNjIgbCAwLDAgMjAuMTY3ODMsMCBjIDUuNjEyNywwIDEwLjE1Nzg2LC00LjU5IDEwLjE1Nzg2LC0xMC4yNDE2MiBsIDAsMCAwLC0xOS43MTMzOCBjIDAsLTUuNjU2IC00LjU0NTE2LC0xMC4yMzg5OCAtMTAuMTU3ODYsLTEwLjIzODk4IGwgMCwwIC0yMC4xNjc4MywwIHogbSAxNDEuNjY1NDksMTQuMTgwNDMgYyAtMTAuMDM3NDcsMCAtMTguMTcxODksOC4wNzk3MyAtMTguMTcxODksMTguMDQ2MjkgbCAwLDAgMCwzNC43MjYwMyBjIDAsOS45NjQ3OSA4LjEzNDQyLDE4LjAzODM5IDE4LjE3MTg5LDE4LjAzODM5IGwgMCwwIDM2LjA5MzMxLDAgYyAxMC4wMzc0OSwwIDE4LjE4NTE1LC04LjA3MzYgMTguMTg1MTUsLTE4LjAzODM5IGwgMCwwIDAsLTM0LjcyNjAzIGMgMCwtOS45NjY1NiAtOC4xNDc2NiwtMTguMDQ2MjkgLTE4LjE4NTE1LC0xOC4wNDYyOSBsIDAsMCAtMzYuMDkzMzEsMCB6IG0gMjE4LjA5NDU3LDE0LjgzNjAxIGMgLTQuMTY5ODQsMCAtNy41NDMxNCwzLjQwODAxIC03LjU0MzE0LDcuNjA2MDcgbCAwLDAgMCwxNC42MzMgYyAwLDQuMTk4MDYgMy4zNzMzLDcuNTk5OTMgNy41NDMxNCw3LjU5OTkzIGwgMCwwIDE0Ljk3MzkzLDAgYyA0LjE1NzQ3LDAgNy41MjgwNywtMy40MDE4NyA3LjUyODA3LC03LjU5OTkzIGwgMCwwIDAsLTE0LjYzMyBjIDAsLTQuMTk4MDYgLTMuMzcwNiwtNy42MDYwNyAtNy41MjgwNywtNy42MDYwNyBsIDAsMCAtMTQuOTczOTMsMCB6IG0gLTQxNC4xNzU3MzgsMCBjIC00LjE2MzY4OCwwIC03LjUzNjk1LDMuNDA4MDEgLTcuNTM2OTUsNy42MDYwNyBsIDAsMCAwLDE0LjYzMyBjIDAsNC4xOTgwNiAzLjM3MzI2Miw3LjU5OTkzIDcuNTM2OTUsNy41OTk5MyBsIDAsMCAxNC45Njc2OTEsMCBjIDQuMTY2MzYsMCA3LjUzODczNywtMy40MDE4NyA3LjUzODczNywtNy41OTk5MyBsIDAsMCAwLC0xNC42MzMgYyAwLC00LjE5ODA2IC0zLjM3MjM3NywtNy42MDYwNyAtNy41Mzg3MzcsLTcuNjA2MDcgbCAwLDAgLTE0Ljk2NzY5MSwwIHogbSAyODQuNzk2ODE4LDUuMDI0MTQgYyAtNy41Mzk2LDAgLTEzLjY1NDE0LDYuMTYyMTggLTEzLjY1NDE0LDEzLjc2Mjk4IGwgMCwwIDAsMjYuNTAyMTYgYyAwLDcuNjA2MDggNi4xMTQ1NCwxMy43NzM1MyAxMy42NTQxNCwxMy43NzM1MyBsIDAsMCAyNy4xMTgwMiwwIGMgNy41NDA0OCwwIDEzLjY0OTcsLTYuMTY3NDUgMTMuNjQ5NywtMTMuNzczNTMgbCAwLDAgMCwtMjYuNTAyMTYgYyAwLC03LjYwMDggLTYuMTA5MjIsLTEzLjc2Mjk4IC0xMy42NDk3LC0xMy43NjI5OCBsIDAsMCAtMjcuMTE4MDIsMCB6IG0gLTE2OC40NTY4NSwwIGMgLTcuNTM3LDAgLTEzLjY1MjM5LDYuMTYyMTggLTEzLjY1MjM5LDEzLjc2Mjk4IGwgMCwwIDAsMjYuNTAyMTYgYyAwLDcuNjA2MDggNi4xMTUzOSwxMy43NzM1MyAxMy42NTIzOSwxMy43NzM1MyBsIDAsMCAyNy4xMTYxNywwIGMgNy41MzYwNywwIDEzLjY1NDE0LC02LjE2NzQ1IDEzLjY1NDE0LC0xMy43NzM1MyBsIDAsMCAwLC0yNi41MDIxNiBjIDAsLTcuNjAwOCAtNi4xMTgwNywtMTMuNzYyOTggLTEzLjY1NDE0LC0xMy43NjI5OCBsIDAsMCAtMjcuMTE2MTcsMCB6IG0gMjM4LjIxNjM5LDIwLjUwMjU1IGMgLTUuNjA3MzIsMCAtMTAuMTUyNTMsNC41OTUyNyAtMTAuMTUyNTMsMTAuMjU2NTUgbCAwLDAgMCwxOS43MDgxMSBjIDAsNS42NjIxNSA0LjU0NTIxLDEwLjIzOTg1IDEwLjE1MjUzLDEwLjIzOTg1IGwgMCwwIDIwLjE3NDA4LDAgYyA1LjYwMzg0LDAgMTAuMTUyNTQsLTQuNTc3NyAxMC4xNTI1NCwtMTAuMjM5ODUgbCAwLDAgMCwtMTkuNzA4MTEgYyAwLC01LjY2MTI4IC00LjU0ODcsLTEwLjI1NjU1IC0xMC4xNTI1NCwtMTAuMjU2NTUgbCAwLDAgLTIwLjE3NDA4LDAgeiBtIC0zMDAuMTQwNjgsMCBjIC01LjYwNTYzLDAgLTEwLjE1NjA3LDQuNTk1MjcgLTEwLjE1NjA3LDEwLjI1NjU1IGwgMCwwIDAsMTkuNzA4MTEgYyAwLDUuNjYyMTUgNC41NTA0NCwxMC4yMzk4NSAxMC4xNTYwNywxMC4yMzk4NSBsIDAsMCAyMC4xNjc4MywwIGMgNS42MTI3LDAgMTAuMTU3ODYsLTQuNTc3NyAxMC4xNTc4NiwtMTAuMjM5ODUgbCAwLDAgMCwtMTkuNzA4MTEgYyAwLC01LjY2MTI4IC00LjU0NTE2LC0xMC4yNTY1NSAtMTAuMTU3ODYsLTEwLjI1NjU1IGwgMCwwIC0yMC4xNjc4MywwIHogbSAzNTkuNzYwMDYsMTkuMDQxMTEgYyAtNC4xNjk4NCwwIC03LjU0MzE0LDMuNDA0NDkgLTcuNTQzMTQsNy42MDI1NSBsIDAsMCAwLDE0LjYzMzAxIGMgMCw0LjE5MDEzIDMuMzczMyw3LjYwNjA2IDcuNTQzMTQsNy42MDYwNiBsIDAsMCAxNC45NzM5MywwIGMgNC4xNTc0NywwIDcuNTI4MDcsLTMuNDE1OTMgNy41MjgwNywtNy42MDYwNiBsIDAsMCAwLC0xNC42MzMwMSBjIDAsLTQuMTk4MDYgLTMuMzcwNiwtNy42MDI1NSAtNy41MjgwNywtNy42MDI1NSBsIDAsMCAtMTQuOTczOTMsMCB6IG0gLTQxNC4xNzU3MzgsMCBjIC00LjE2MzY4OCwwIC03LjUzNjk1LDMuNDA0NDkgLTcuNTM2OTUsNy42MDI1NSBsIDAsMCAwLDE0LjYzMzAxIGMgMCw0LjE5MDEzIDMuMzczMjYyLDcuNjA2MDYgNy41MzY5NSw3LjYwNjA2IGwgMCwwIDE0Ljk2NzY5MSwwIGMgNC4xNjYzNiwwIDcuNTM4NzM3LC0zLjQxNTkzIDcuNTM4NzM3LC03LjYwNjA2IGwgMCwwIDAsLTE0LjYzMzAxIGMgMCwtNC4xOTgwNiAtMy4zNzIzNzcsLTcuNjAyNTUgLTcuNTM4NzM3LC03LjYwMjU1IGwgMCwwIC0xNC45Njc2OTEsMCB6IG0gNDYzLjYxMDcyOCwxNC42MjE1OCBjIC0zLjE0MzA5LDAgLTUuNjk2NzUsMi41Njc4NiAtNS42OTY3NSw1LjczNjg1IGwgMCwwIDAsMTEuMDM5NTYgYyAwLDMuMTU5MzEgMi41NTM2Niw1LjczMjQ1IDUuNjk2NzUsNS43MzI0NSBsIDAsMCAxMS4yOTQzNiwwIGMgMy4xMzA3OCwwIDUuNjgyNiwtMi41NzMxNCA1LjY4MjYsLTUuNzMyNDUgbCAwLDAgMCwtMTEuMDM5NTYgYyAwLC0zLjE2ODk5IC0yLjU1MTgyLC01LjczNjg1IC01LjY4MjYsLTUuNzM2ODUgbCAwLDAgLTExLjI5NDM2LDAgeiBtIC01MDkuMzY1MzA0LDAgYyAtMy4xNDEzNTYsMCAtNS42OTE0NCwyLjU2Nzg2IC01LjY5MTQ0LDUuNzM2ODUgbCAwLDAgMCwxMS4wMzk1NiBjIDAsMy4xNTkzMSAyLjU1MDA4NCw1LjczMjQ1IDUuNjkxNDQsNS43MzI0NSBsIDAsMCAxMS4yODcyODcsMCBjIDMuMTQyMjQxLDAgNS42ODUyNDIsLTIuNTczMTQgNS42ODUyNDIsLTUuNzMyNDUgbCAwLDAgMCwtMTEuMDM5NTYgYyAwLC0zLjE2ODk5IC0yLjU0MzAwMSwtNS43MzY4NSAtNS42ODUyNDIsLTUuNzM2ODUgbCAwLDAgLTExLjI4NzI4NywwIHoiIGZpbGw9IiMwMDAwMDAiLz4mI3hhOzxwYXRoIGQ9Im0gMTI0LjU3MTgzLDQ3OC4xMjI4IDAsNDkuMjEzOCAzLjk4MjYyLDAgMCwtMTYuODc4NyBjIDIuMzcwNiwxLjcxMDYgMTEuOTgxOTksOC41Nzk3IDE3LjczMjEzLDEyLjYxMTYgNC4zNDI5NSwyLjgzMzQgNC4yMTAyLDMuOTAzIDQuMjY3MDksNC4yNjcxIGwgNS4zMTAxNiwwIGMgMCwtMi41NTY1IC0yLjg5NzgzLC0zLjgzMDkgLTYuMTYzNTgsLTYuMDY4NyAtMS45ODM3MiwtMS4zNjkzIC0xNi42ODkwNiwtMTEuNjYzNCAtMTYuNjg5MDYsLTExLjY2MzQgMCwwIDE0LjMxODQ2LC05LjQ0ODMgMTYuMzA5NzcsLTEwLjgxIDMuMjU4MTYsLTIuMjQxNiA1Ljg3OTEsLTMuNTA4NSA1Ljg3OTEsLTYuMDY4NyBsIC01LjEyMDUxLDAgYyAtMC4wNDU1LDAuMzUyNyAwLjE3ODQyLDEuNDI5OSAtNC4xNzIyNyw0LjI2NyAtNS40MzkxMSwzLjgzNDcgLTE0LjQxMzI4LDEwLjIyOTcgLTE3LjM1MjgzLDEyLjMyNzIgbCAwLC0zMS4xOTcyIC0zLjk4MjYyLDAgeiBtIDM3LjM2MDc1LDAgMCw0OS4yMTM4IDMuOTgyNjIsMCAwLC00OS4yMTM4IC0zLjk4MjYyLDAgeiBtIDExOC45MDk2LDAgMCw0MS4zNDM0IDAsMC4wOTUgMCwwLjQ3NDEgYyAwLjAwMywwLjYxNDQgLTAuMTAyMjYsMS43Mjk2IC0wLjQ3NDEyLDIuNDY1NCAtMC40NDM3OCwwLjczMjEgLTAuNjE4MjUsMS4wODEgLTEuODAxNjYsMS4xMzc5IGwgLTE5LjUzMzc5LDAgYyAtMS4xNzU4MiwtMC4wNTcgLTEuMzU0MDksLTAuNDA1OCAtMS44MDE2NiwtMS4xMzc5IC0wLjI3NzA0LC0wLjU1IC0wLjQyODYxLC0xLjI3ODIgLTAuNDc0MTIsLTEuODk2NSBsIDAsLTIwLjE5NzUgMCwtMC4wOTUgMCwtMC4zNzkzIGMgLTAuMDEyMSwtMC42MzM0IDAuMDk4NiwtMS44MjQ0IDAuNDc0MTIsLTIuNTYwMyAwLjQ0NzU3LC0wLjczNTggMC42MTQ0NiwtMS4wNTgyIDEuODAxNjYsLTEuMTM3OCBsIDE5LjUzMzc5LDAgMCwtMy45ODI3IC0xOS41MzM3OSwwIGMgLTIuNjkzMDEsLTAuMDY4IC00LjY5OTQ5LDEuNzIyIC01LjQwNDk4LDMuNDEzNyAtMC43ODUxNSwxLjY3NjUgLTAuODQyMDQsMy4zMTUxIC0wLjg1MzQyLDQuMjY3MSBsIDAsMC42NjM4IDAsMTguNjgwMyAwLDAuNzU4NiAwLDAuNjYzOCAwLDAuNjYzOCAwLjA5NDcsMCBjIDAuMDkxLDAuODQ1OCAwLjI4MDY4LDEuOTExNiAwLjc1ODU5LDIuOTM5NSAwLjcwNTUsMS42ODAzIDIuNzExOTgsMy4zODcxIDUuNDA0OTksMy4zMTg5IGwgMTkuNTMzNzksMCAwLjE4OTY1LDAgYyAyLjYwNTc3LDAgNC41MDk4NCwtMS42NzI3IDUuMjE1MzMsLTMuMzE4OSAwLjc3NzU2LC0xLjY4MDMgMC44NDk2MywtMy4zMjY0IDAuODUzNDIsLTQuMjY3MSBsIDAsLTAuNzU4NiAwLC00MS4xNTM3IC0zLjk4MjYyLDAgeiBtIC0xNzguNjQ4ODcsMTQuMzE4NSBjIC0yLjE5MTM3LDAuMzE1NiAtMy43Mzc5OSwxLjg0NTIgLTQuMzYxOTE4LDMuMzE4OCAtMC43ODUxNDUsMS42NzY1IC0wLjgzNDQ1NCwzLjMxODkgLTAuODUzNDE4LDQuMjY3MSBsIDAsMC43NTg2IDAsMjYuNTUwOCAzLjk4MjYxNiwwIDAsLTI2Ljc0MDQgMCwtMC4wOTUgMCwtMC40NzQxIGMgLTAuMDA2LC0wLjYzNzIgMC4xMDIyNiwtMS44MjgyIDAuNDc0MTIsLTIuNTYwMyAwLjQzOTk5LC0wLjczNTggMC41MjcyMywtMC45NzEgMS43MDY4NCwtMS4wNDMgbCAxNC43OTI1OCwwIDAsLTMuOTgyNyAtMTQuNzkyNTgsMCBjIC0wLjMzNjYzLC0wLjAxIC0wLjYzNTE5LC0wLjA0NSAtMC45NDgyNCwwIHogbSAyMTYuMzg4OTIsMCBjIC0yLjY4NTQyLC0wLjA2OCAtNC42ODA1MiwxLjcyOTYgLTUuNDA0OTgsMy40MTM3IC0wLjc4MTM1LDEuNjgwMiAtMC44NDIwNCwzLjMyMjYgLTAuODUzNDIsNC4yNjcgbCAwLDAuNjYzOCAwLDI2LjY0NTYgNC4wNzc0NCwwIDAsLTI2LjgzNTIgLTAuMDk0NywtMC4wOTUgMCwtMC4zNzkzIGMgMCwtMC42Mjk2IDAuMTAyMjYsLTEuODE2OCAwLjQ3NDEyLC0yLjU2MDMgMC40MzI0LC0wLjczNTggMC42MjU4NCwtMC45Nzg1IDEuODAxNjYsLTEuMDQzIGwgMTUuMzYxNTMsMCAwLDMwLjkxMjcgMy45ODI2MiwwIDAsLTMwLjkxMjcgMTUuNTUxMTgsMCBjIDEuMTc5NjEsMC4wNjQgMS4yNjY4NSwwLjMwMzQgMS43MDY4MywxLjA0MyAwLjM2NzkyLDAuNzQzNSAwLjQ4NTUsMS45MzA3IDAuNDc0MTIsMi41NjAzIGwgMCwwLjM3OTMgMCwwLjA5NSAwLDI2LjgzNTIgMy45ODI2MiwwIDAsLTI2LjY0NTYgMCwtMC42NjM4IGMgLTAuMDEyMSwtMC45NDQ0IC0wLjA2OCwtMi41OTA2IC0wLjg1MzQyLC00LjI2NyAtMC43MDU0OSwtMS42ODQxIC0yLjYxMzM1LC0zLjQ4MiAtNS4zMTAxNSwtMy40MTM3IGwgLTM0Ljg5NTMzLDAgeiBtIDk1LjU4Mjg0LDAgYyAtMi42OTY4LC0wLjA2NSAtNC42ODgxMSwxLjczMzQgLTUuNDA0OTgsMy40MTM3IC0wLjc4MTM1LDEuNjgwMiAtMC44NDU4MywzLjMyMjYgLTAuODUzNDIsNC4yNjcgbCAwLDAuNjYzOCAwLDI2LjY0NTYgNC4wNzc0NCwwIDAsLTI2LjgzNTIgLTAuMDk0NywtMC4wOTUgMCwtMC4zNzkzIGMgLTAuMDI0MywtMC42Mjk2IDAuMTEzNzksLTEuODE2OCAwLjQ3NDEyLC0yLjU2MDMgMC40NDM3OCwtMC43MzIgMC42MTA2NywtMS4wNjk2IDEuODAxNjYsLTEuMTM3OCBsIDE4Ljg3MDAzLDAuMDk1IGMgMS4xOTA5OSwwLjA2NSAxLjM2OTI2LDAuMzAzNSAxLjgwMTY2LDEuMDQzMSAwLjM3MTcxLDAuNzQzNCAwLjQ4OTI5LDEuOTMwNiAwLjQ3NDEyLDIuNTYwMiBsIDAsMC4zNzkzIDAsMC4wOTUgMCwyNi44MzUzIDMuOTgyNjIsMCAwLC0yNi42NDU2IDAsLTAuNjYzOCBjIC0wLjAxMjEsLTAuOTQ0NSAtMC4wNjgzLC0yLjU5MDYgLTAuODUzNDIsLTQuMjY3MSAtMC43MDE3LC0xLjY4MDMgLTIuNzE5NTYsLTMuNDc4MiAtNS40MDQ5OCwtMy40MTM3IGwgLTE4Ljg3MDAzLDAgeiBtIDE1Ni44MzkzLDAgYyAtMi4xODc2LDAuMzEzIC0zLjc0Nzk0LDEuODQxOSAtNC4zNjE5MiwzLjMxODggLTAuNzk2NTIsMS42NzY1IC0wLjg0MjA0LDMuMzE1MSAtMC44NTM0MSw0LjI2NzEgbCAwLDAuNzU4NiAwLDI2LjU1MDggMy45ODI2MSwwIDAsLTI2Ljc0MDQgMCwtMC4wOTUgMCwtMC40NzQxIGMgLTAuMDE4MiwtMC42NDEgMC4wOTA3LC0xLjgyODIgMC40NzQxMywtMi41NjAzIDAuNDE3MjIsLTAuNzM5NiAwLjYxODI1LC0wLjk3NDggMS44MDE2NiwtMS4wNDMgbCAxNC43OTI1OCwwIDAsLTMuOTgyNyAtMTQuNzkyNTgsMCBjIC0wLjMzNTY3LC0wLjAxIC0wLjczMDU2LC0wLjA0NSAtMS4wNDMwNywwIHogbSAtNTY4LjE4Njg2OTksMC4yODQzIDAsMjYuNTUwOCBjIC0wLjAxMjEzNywwLjEyMTQgMCwwLjQxMzQgMCwwLjc1ODYgMC4wMDYwNywwLjk0MDYgMC4wNjA5OTEsMi41ODY4IDAuODUzNDE4Miw0LjI2NzEgMC42OTc5MDY0LDEuNjQ2MSAyLjYwOTU2MzIsMy4zMTg4IDUuMjE1MzMzNCwzLjMxODggbCAwLjE4OTY0ODUsMCAzNC44MDA0OTY4LDAgYyAyLjY5NjgwMiwwLjA2OCA0LjY5MTkwNCwtMS42Mzg1IDUuNDA0OTgyLC0zLjMxODggMC43ODEzNTIsLTEuNjgwMyAwLjg0NTgzMiwtMy4zMjY1IDAuODUzNDE4LC00LjI2NzEgbCAwLC0wLjc1ODYgMCwtMjYuNTUwOCAtMy45ODI2MTgsMCAwLDI2Ljc0MDQgMCwwLjA5NSAwLDAuNDc0MSBjIDAuMDEyMTQsMC42MTQ1IC0wLjEwOTg0NCwxLjcyOTYgLTAuNDc0MTIxLDIuNDY1NSAtMC40NDM3NzgsMC43MzU4IC0wLjYxNDQ2MSwxLjA4MSAtMS44MDE2NjEsMS4xMzc5IGwgLTE1LjI2NjcwMywwIDAsLTMwLjkxMjcgLTMuOTgyNjE4LDAgMCwzMC45MTI3IC0xNS41NTExNzU4LDAgYyAtMS4xODM0MDY2LC0wLjA1NyAtMS4zNTQwOTAyLC0wLjQwMjEgLTEuODAxNjYwNiwtMS4xMzc5IC0wLjM3MTcxMTEsLTAuNzM1OSAtMC40ODU1MDAyLC0xLjg1MSAtMC40NzQxMjEzLC0yLjQ2NTUgbCAwLC0wLjQ3NDEgMCwtMC4wOTUgMCwtMjYuNzQwNCAtMy45ODI2MTgyLDAgeiBtIDU5LjU0OTYyNDksMCBjIC0yLjE4ODc4NywwLjMwNDEgLTMuNzQxMjk1LDEuODM1MyAtNC4zNjE5MTYsMy4zMTg5IC0wLjc5MjczLDEuNjc2NCAtMC44NDk2MjUsMy4zMjI2IC0wLjg1MzQxOCw0LjI2NyBsIDAsMC42NjM4IDAsMTguMzAxMSAwLDAuNzU4NiBjIDAuMDAzLDAuOTQwNiAwLjA2MDk5LDIuNTg2OCAwLjg1MzQxOCw0LjI2NzEgMC42OTAzMjEsMS42NDYxIDIuNjA1NzcxLDMuMzE4OCA1LjIxNTMzNCwzLjMxODggbCAwLjE4OTY0OCwwIDE5LjcyMzQ0MywwIGMgMi42OTMwMDksMC4wNjggNC42OTE5MDQsLTEuNjM4NSA1LjQwNDk4MiwtMy4zMTg4IDAuNzg4OTM4LC0xLjY4MDMgMC44NDU4MzIsLTMuMzI2NSAwLjg1MzQxOCwtNC4yNjcxIGwgLTAuMDk0NjcsLTAuNjYzOCAwLC0xOC4zOTU5IDAuMDk0NjcsLTAuNjYzOCBjIC0wLjAwNjEsLTAuOTQ0NCAtMC4wNjQ2MywtMi41OTA2IC0wLjg1MzQxOCwtNC4yNjcgLTAuNzEzMDc4LC0xLjY5NTUgLTIuNzExOTczLC0zLjM5NDggLTUuNDA0OTgyLC0zLjMxODkgbCAtMTkuNzIzNDQzLDAgYyAtMC4zMzYxNDgsLTAuMDEgLTAuNzMwMzc0LC0wLjA0MyAtMS4wNDMwNjYsMCB6IG0gMTE2LjA2NDg3NSwwIGMgLTIuMTkwMjQsMC4zMDQxIC0zLjc0MTI5LDEuODM1MyAtNC4zNjE5MiwzLjMxODkgLTAuNzg4OTMsMS42NzY0IC0wLjkzMzA3LDMuMzIyNiAtMC45NDgyNCw0LjI2NyBsIDAuMDk0NywwLjY2MzggMCwxOC4zMDExIC0wLjA5NDcsMC43NTg2IGMgMC4wMTUyLDAuOTQwNiAwLjE1OTMxLDIuNTg2OCAwLjk0ODI0LDQuMjY3MSAwLjcwMTcsMS42NDYxIDIuNTk4MTksMy4zMTg4IDUuMjE1MzQsMy4zMTg4IGwgMC4wOTQ3LDAgMTkuODE4MjcsMCBjIDIuNjc0MDQsMC4wNjggNC41OTcwOCwtMS42Mzg1IDUuMzEwMTYsLTMuMzE4OCAwLjc4NTE0LC0xLjY4MDMgMC44NDIwMywtMy4zMjY1IDAuODUzNDEsLTQuMjY3MSBsIDAsLTAuNjYzOCAwLC0xOC4zOTU5IDAsLTAuNjYzOCBjIC0wLjAxMjEsLTAuOTQ0NCAtMC4wNjgzLC0yLjU5MDYgLTAuODUzNDEsLTQuMjY3IC0wLjcxMzA4LC0xLjY5NTUgLTIuNjM2MTIsLTMuMzk0OCAtNS4zMTAxNiwtMy4zMTg5IGwgLTE5LjgxODI3LDAgYyAtMC4zMzYxNSwtMC4wMSAtMC42MzUzNCwtMC4wNDMgLTAuOTQ4MjQsMCB6IG0gMzQuNTE2MDIsMCAwLDMuOTgyNiAyNi41NTA3OSwwIGMgMS4xODM0MSwwLjA2NSAxLjM2NTQ3LDAuMzA3MyAxLjgwMTY2LDEuMDQzMSAwLjM2NzkyLDAuNzM1OCAwLjQ5MzA5LDEuOTQyIDAuNDc0MTIsMi41NjAyIGwgMCwwLjQ3NDIgMCwwLjA5NSAwLDE4LjU4NTYgMCwwLjA5NSAwLDAuNDc0MSBjIDAuMDEyMSwwLjYxNDQgLTAuMTA2MiwxLjcyOTYgLTAuNDc0MTIsMi40NjU0IC0wLjQzNjE5LDAuNzM1OCAtMC42MTgyNSwxLjA3NzIgLTEuODAxNjYsMS4xMzc5IGwgLTIxLjI0MDYzLDAgYyAtMS4zNDY1LC0wLjA1NyAtMS40NDUxMiwtMC4zNzU1IC0xLjgwMTY2LC0wLjg1MzQgLTAuMzA3MjMsLTAuNTA4MyAtMC40NzQxMiwtMS40MjYyIC0wLjQ3NDEyLC0xLjg5NjUgbCAwLC0wLjI4NDMgMCwtMC4wOTUgMCwtNy4zMDE1IDAsLTAuMDk1IDAsLTAuNDc0MiBjIDAsLTAuNjE4MiAwLjA5ODYsLTEuODIwNiAwLjQ3NDEyLC0yLjU2MDIgMC40MzI0LC0wLjczNTggMC42MTQ0NiwtMC45NzQ4IDEuODAxNjYsLTEuMDQzMSBsIDIxLjI0MDYzLDAgMCwtMy45ODI2IC0yMS4yNDA2MywwIGMgLTIuNjk2OCwtMC4wNjggLTQuNjgwNTIsMS42Mzg2IC01LjQwNDk4LDMuMzE4OSAtMC43ODUxNCwxLjY4NCAtMC44NDU4MywzLjMxODggLTAuODUzNDIsNC4yNjcgbCAwLDAuNzU4NiAwLDYuOTIyMiAwLDAuNTY5IGMgMC4wMDYsMC44NDIgMC4xMDI1NiwyLjM1OTIgMC45NDgyNCwzLjg4NzcgMC44MDQxMSwxLjU1MTQgMi43NzY0NiwyLjkwOTMgNS4zMTAxNiwyLjg0NDggbCAyMS4yNDA2MywwIDAuMTg5NjUsMCBjIDIuNjE3MTUsMCA0LjUyMTIyLC0xLjY3NjUgNS4yMTUzMywtMy4zMTg5IDAuNzg1MTUsLTEuNjg0MSAwLjg0NTg0LC0zLjMyNjQgMC44NTM0MiwtNC4yNjcxIGwgMCwtMC43NTg2IDAsLTE4LjMwMSAwLC0wLjY2MzggYyAtMC4wMDYsLTAuOTQ0NSAtMC4wNjgzLC0yLjU5MDYgLTAuODUzNDIsLTQuMjY3MSAtMC43MTMwNywtMS42OTE3IC0yLjcxNTc2LC0zLjM5MDkgLTUuNDA0OTgsLTMuMzE4OCBsIC0yNi41NTA3OSwwIHogbSAxNTQuNzUzMTcsMCAwLDMuOTgyNiAyNi42NDU2MSwwIGMgMS4xNjgyNCwwLjA2NSAxLjI2Njg1LDAuMzA3MyAxLjcwNjg0LDEuMDQzMSAwLjM3MTcxLDAuNzM1OCAwLjQ3NDEyLDEuOTQ1OCAwLjQ3NDEyLDIuNTYwMiBsIDAsMC40NzQyIDAsMC4wOTUgMCwxOC41ODU2IDAsMC4wOTUgMCwwLjQ3NDEgYyAwLDAuNjE0NCAtMC4xMDIyNiwxLjcyOTYgLTAuNDc0MTIsMi40NjU0IC0wLjQzOTk5LDAuNzM1OCAtMC41Mzg2LDEuMDc3MiAtMS43MDY4NCwxLjEzNzkgbCAtMjEuMzM1NDUsMCBjIC0xLjE4NzIsLTAuMDYxIC0xLjM1Nzg4LC0wLjQwMjEgLTEuODAxNjYsLTEuMTM3OSAtMC4zNjQxMywtMC43Mzk2IC0wLjQ3NDEyLC0xLjg1MSAtMC40NzQxMiwtMi40NjU0IGwgMCwtMC40NzQxIDAsLTAuMDk1IDAsLTYuMjU4NCAwLC0wLjA5NSAwLC0wLjA5NSAwLC0wLjM3OTMgYyAtMC4wMTIxLC0wLjYxODIgMC4xMDk4NCwtMS44MjA2IDAuNDc0MTIsLTIuNTYwMiAwLjQ0Mzc4LC0wLjczNTggMC42MTQ0NiwtMC45NzQ4IDEuODAxNjYsLTEuMDQzMSBsIDIxLjMzNTQ1LDAgMCwtMy45ODI2IC0yMS4zMzU0NSwwIGMgLTIuNjg1NDIsLTAuMDY4IC00LjY5MTkxLDEuNjM4NiAtNS40MDQ5OCwzLjMxODkgLTAuNzczNzcsMS42ODQgLTAuODUzNDIsMy4zMTg4IC0wLjg1MzQyLDQuMjY3IGwgMCwwLjc1ODYgMCw1Ljg3OTEgMCwwLjc1ODYgYyAwLjAwNiwwLjk0MDcgMC4wNzk1LDIuNTgzIDAuODUzNDIsNC4yNjcxIDAuNzEzMDcsMS42NzY1IDIuNzE5NTYsMy4zODcxIDUuNDA0OTgsMy4zMTg5IGwgMjEuMzM1NDUsMCAwLjA5NDcsMCBjIDIuNjA1NzcsMCA0LjUyMTIyLC0xLjY3NjUgNS4yMTUzMywtMy4zMTg5IDAuNzg1MTQsLTEuNjg0MSAwLjg0NTgzLC0zLjMyNjQgMC44NTM0MiwtNC4yNjcxIGwgMCwtMC42NjM3IDAsLTE4LjM5NTkgMCwtMC42NjM4IGMgLTAuMDA2LC0wLjk0ODIgLTAuMDY4MywtMi41ODY4IC0wLjg1MzQyLC00LjI2NzEgLTAuNzAxNywtMS42OTE3IC0yLjYyNDc0LC0zLjM5MDkgLTUuMzEwMTYsLTMuMzE4OCBsIC0yNi42NDU2MSwwIHogbSA3OS45MzY4NCwwIDAsMy45ODI2IDI2LjU1MDc5LDAgYyAxLjE3NTgyLDAuMDY1IDEuMzYxNjcsMC4zMDczIDEuODAxNjYsMS4wNDMxIDAuMzcxNzEsMC43MzU4IDAuNDg1NSwxLjk0NTggMC40NzQxMiwyLjU2MDIgbCAwLDAuNDc0MiAwLDAuMDk1IDAsMTguNTg1NiAwLDAuMDk1IDAsMC40NzQxIGMgMC4wMTIxLDAuNjE0NCAtMC4xMDIyNiwxLjcyOTYgLTAuNDc0MTIsMi40NjU0IC0wLjQzOTk5LDAuNzM1OCAtMC42MjU4NCwxLjA3NzIgLTEuODAxNjYsMS4xMzc5IGwgLTIxLjMzNTQ2LDAgYyAtMS4zMzUxMiwtMC4wNTcgLTEuNDYwMjksLTAuMzc1NSAtMS44MDE2NiwtMC44NTM0IC0wLjMxNDgyLC0wLjUwODMgLTAuMzc5MywtMS40MjYyIC0wLjM3OTMsLTEuODk2NSBsIDAsLTAuMjg0MyAwLC0wLjA5NSAwLC03LjMwMTUgMCwtMC4wOTUgMCwtMC4wOTUgMCwtMC4zNzkzIGMgMCwtMC42MTgzIDAuMDg3NCwtMS44MjA2IDAuNDc0MTMsLTIuNTYwMyAwLjQyODYsLTAuNzM1OCAwLjUxOTYzLC0wLjk3NDggMS43MDY4MywtMS4wNDMgbCAyMS4zMzU0NiwwIDAsLTMuOTgyNiAtMjEuMzM1NDYsMCBjIC0yLjY5NjgsLTAuMDY4IC00LjU5NzA4LDEuNjM4NSAtNS4zMTAxNiwzLjMxODggLTAuNzg1MTQsMS42ODQxIC0wLjg0NTgzLDMuMzE4OSAtMC44NTM0MSw0LjI2NzEgbCAwLDAuNzU4NiAwLDYuOTIyMiAwLDAuNTY4OSBjIDAsMC44NDIgMC4xMDIyNSwyLjM1NTQgMC45NDgyNCwzLjg4NzggMC44MDAzMSwxLjU0MzcgMi43NzY0NSwyLjkwOTIgNS4zMTAxNiwyLjg0NDcgbCAyMS4yNDA2MywwIDAuMTg5NjQsMCBjIDIuNTk0NCwwIDQuNTIxMjIsLTEuNjc2NSA1LjIxNTM0LC0zLjMxODggMC43ODEzNSwtMS42ODQxIDAuODQ1ODMsLTMuMzI2NSAwLjg1MzQyLC00LjI2NzEgbCAwLC0wLjY2MzggMCwtMTguMzk1OSAwLC0wLjY2MzggYyAtMC4wMDksLTAuOTQ4MiAtMC4wNzIyLC0yLjU4NjggLTAuODUzNDIsLTQuMjY3IC0wLjcxNjg3LC0xLjY5MTcgLTIuNzE5NTYsLTMuMzkxIC01LjQwNDk4LC0zLjMxODkgbCAtMjYuNTUwNzksMCB6IG0gNDMuNDI5NSwwIGMgLTIuMTkxMjcsMC4zMTE2IC0zLjc0NDYsMS44Mzg3IC00LjM2MTkxLDMuMzE4OSAtMC40ODE3MSwxLjAzMTYgLTAuNjcxMzYsMS45OTg4IC0wLjc1ODYsMi44NDQ3IGwgLTAuMDk0NywwIDAsMC43NTg2IDAsMC42NjM3IDAsMC42NjM4IDAsMTYuMTIwMSAwLDAuNjYzOCBjIDAuMDE1MiwwLjk0ODIgMC4wNzE5LDIuNDk1OCAwLjg1MzQyLDQuMTcyMyAwLjY5NzksMS42NTM3IDIuNjA5NTYsMy40MTM2IDUuMjE1MzMsMy40MTM2IGwgMC4xODk2NSwwIDIwLjU3Njg2LDAgMCwtMy45ODI2IC0yMC41NzY4NiwwIGMgLTEuMTc1ODIsLTAuMDY1IC0xLjM1Nzg4LC0wLjQwMiAtMS44MDE2NiwtMS4xMzc5IC0wLjM3MTcxLC0wLjczNTggLTAuNDgxNzEsLTEuODMyIC0wLjQ3NDEyLC0yLjQ2NTQgbCAwLC0wLjQ3NDEgMCwtMC4wOTUgMCwtMTcuNDQ3NyBjIDAuMDQ5NSwtMC42MjIgMC4yMTI0LC0xLjQzMzcgMC40NzQxMiwtMS45OTEzIDAuNDQzNzgsLTAuNzMyIDAuNjI1ODQsLTAuOTc0OCAxLjgwMTY2LC0xLjA0MyBsIDIxLjI0MDYzLDAgYyAxLjE4NzIsMC4wNjggMS4zNTc4OCwwLjMxMSAxLjgwMTY2LDEuMDQzIDAuMzcxNzEsMC43NDM1IDAuNDgxNzEsMS45NDIgMC40NzQxMiwyLjU2MDMgbCAwLDAuNDc0MSAwLDAuMDk1IDAsMjkuOTY0NCAwLDAuMDk1IDAsMC40NzQxIGMgMC4wMDYsMC42MjU5IC0wLjEwMjU2LDEuODI0NSAtMC40NzQxMiwyLjU2MDMgLTAuNDQzNzgsMC43MzIgLTAuNjE0NDYsMC45Nzg2IC0xLjgwMTY2LDEuMDQzMSBsIC0xOS4wNTk2NywwIDAsMy45ODI2IDE5LjA1OTY3LDAgMC4xODk2NSwwIGMgMi42MDE5OCwwIDQuNTA5ODQsLTEuNjc2NSA1LjIxNTMzLC0zLjMxODkgMC43ODEzNSwtMS42ODc4IDAuODM4MjUsLTMuMzIyNiAwLjg1MzQyLC00LjI2NzEgbCAwLC0wLjY2MzcgMCwtMjkuNzc0OCAwLC0wLjY2MzggYyAwLC0wLjk0NDUgLTAuMDcyMiwtMi41ODY4IC0wLjg1MzQyLC00LjI2NzEgLTAuNzE2ODcsLTEuNjkxNyAtMi43MTE5NywtMy4zOTA5IC01LjQwNDk4LC0zLjMxODggbCAtMjEuMjQwNjMsMCBjIC0wLjMzNjYzLC0wLjAxIC0wLjczMDA0LC0wLjA0NSAtMS4wNDMwNywwIHogbSA0MC4zMDAzMSwwIGMgLTIuMTg2MDksMC4zMDY2IC0zLjcyODAxLDEuODM4NyAtNC4zNjE5MiwzLjMxODkgLTAuNzczNzcsMS42NzY0IC0wLjg0MjA0LDMuMzIyNiAtMC44NTM0Miw0LjI2NyBsIDAsMC42NjM4IDAsMTguMzAxMSAwLDAuNzU4NiBjIDAsMC45NDA2IDAuMDc5OCwyLjU4MyAwLjg1MzQyLDQuMjY3MSAwLjcxNjg3LDEuNjc2NSAyLjcyMzM1LDMuMzg3MSA1LjQwNDk4LDMuMzE4OCBsIDI2LjU1MDc5LDAgMCwtMy45ODI2IC0yNi41NTA3OSwwIGMgLTEuMTgzNCwtMC4wNjEgLTEuMzU3ODgsLTAuNDAyIC0xLjgwMTY2LC0xLjEzNzkgLTAuMzYwMzMsLTAuNzM1OCAtMC40ODkyOSwtMS44NTEgLTAuNDc0MTIsLTIuNDY1NCBsIDAsLTAuNDc0MSAwLC0wLjA5NSAwLC0xOC41ODU2IDAsLTAuMDk1IDAsLTAuMDk1IDAsLTAuMzc5MyBjIC0wLjAxNTIsLTAuNjEwNyAwLjExMzc5LC0xLjgxNjggMC40NzQxMiwtMi41NjAzIDAuNDQzNzgsLTAuNzM1OCAwLjYxODI2LC0wLjk3ODUgMS44MDE2NiwtMS4wNDMgbCAyMS4yNDA2MywwIGMgMS4xNzU4MiwwLjA2NSAxLjM1Nzg5LDAuMzA3MiAxLjgwMTY2LDEuMDQzIDAuMzE4NjEsMC42NTI0IDAuNDUxMzcsMS42MTk2IDAuNDc0MTIsMi4yNzU4IGwgMCw3LjExMTggMCwwLjA5NSAwLDAuMDk1IDAsMC4xODk2IGMgMC4wMDYsMC4zODY5IC0wLjEwNjIsMS4xMTE0IC0wLjM3OTI5LDEuNTE3MiAtMC4yOTE5MSwwLjM3NTUgLTAuNDg5MywwLjcwNTUgLTEuODk2NDksMC43NTg2IGwgLTIxLjI0MDYzLDAgMCw0LjA3NzUgMjEuMjQwNjMsMCAwLjE4OTY1LDAgYyAyLjM5NzE2LDAgNC4yNzg0NywtMS4yMSA1LjEyMDUxLC0yLjY1NTEgMC44NzIzOCwtMS40NTI3IDAuOTQwNjYsLTIuOTA1NCAwLjk0ODI0LC0zLjY5ODIgbCAwLC0wLjU2ODkgMCwtNS45NzM5IDAsLTAuNjYzOCBjIC0wLjAwNiwtMC45NDgyIC0wLjA2ODMsLTIuNTg2OCAtMC44NTM0MiwtNC4yNjcxIC0wLjcwNTQ5LC0xLjY5MTcgLTIuNzIzMzUsLTMuMzkwOSAtNS40MDQ5OCwtMy4zMTg4IGwgLTIxLjI0MDYzLDAgYyAtMC4zMzUyMSwtMC4wMSAtMC43MzA3NywtMC4wNDQgLTEuMDQzMDYsMCB6IG0gLTQ2Ny45NTc2NDksMy45ODI2IDE5LjcyMzQ0MywwIGMgMS4xNzIwMjgsMC4wNjQgMS4zNjU0NjksMC4zMDM1IDEuODAxNjYxLDEuMDQzMSAwLjM2MDMzMiwwLjczNTggMC40ODE3MDcsMS45NDIgMC40NzQxMjEsMi41NjAyIGwgLTAuMDk0NjcsMC40NzQyIDAsMC4wOTUgMCwxOC41ODU2IDAsMC4wOTUgMC4wOTQ2NywwLjQ3NDEgYyAwLjAwNjEsMC42MTQ0IC0wLjExMzc4OSwxLjcyOTYgLTAuNDc0MTIxLDIuNDY1NCAtMC40MzYxOTIsMC43MzU4IC0wLjYyOTYzMywxLjA4MSAtMS44MDE2NjEsMS4xMzc5IGwgLTE5LjcyMzQ0MywwIGMgLTEuMTc5NjEzLC0wLjA1NyAtMS4zNjE2NzYsLTAuNDAyMSAtMS44MDE2NiwtMS4xMzc5IC0wLjM2NDEyNSwtMC43MzU4IC0wLjQ4NTUsLTEuODUxIC0wLjQ3NDEyMSwtMi40NjU0IGwgMCwtMC40NzQxIDAsLTAuMDk1IDAsLTE4LjU4NTYgMCwtMC4wOTUgMCwtMC40NzQyIGMgLTAuMDEyMTQsLTAuNjE4MiAwLjEwOTg0NCwtMS44MjQ0IDAuNDc0MTIxLC0yLjU2MDIgMC40Mzk5ODQsLTAuNzM5NiAwLjYxNDQ2MSwtMC45Nzg2IDEuODAxNjYsLTEuMDQzMSB6IG0gMTE1Ljk3MDA0OSwwIDE5LjgxODI3LDAgYyAxLjE3MjAzLDAuMDY0IDEuMjY2ODUsMC4zMDM1IDEuNzA2ODQsMS4wNDMxIDAuMzcxNzEsMC43MzU4IDAuNDgxNywxLjk0MiAwLjQ3NDEyLDIuNTYwMiBsIDAsMC40NzQyIDAsMC4wOTUgMCwxOC41ODU2IDAsMC4wOTUgMCwwLjQ3NDEgYyAwLjAwNiwwLjYxNDQgLTAuMTAyMjYsMS43Mjk2IC0wLjQ3NDEyLDIuNDY1NCAtMC40Mzk5OSwwLjczNTggLTAuNTM0ODEsMS4wODEgLTEuNzA2ODQsMS4xMzc5IGwgLTE5LjgxODI3LDAgYyAtMS4xODM0LC0wLjA1NyAtMS4yNjMwNiwtMC40MDIxIC0xLjcwNjgzLC0xLjEzNzkgLTAuMzYwMzQsLTAuNzM1OCAtMC40ODU1LC0xLjg1MSAtMC40NzQxMywtMi40NjU0IGwgMCwtMC40NzQxIDAsLTAuMDk1IDAsLTE4LjU4NTYgMCwtMC4wOTUgMCwtMC40NzQyIGMgLTAuMDEyMSwtMC42MTgyIDAuMTEzNzksLTEuODI0NCAwLjQ3NDEzLC0yLjU2MDIgMC40NDM3NywtMC43Mzk2IDAuNTIzNDMsLTAuOTc4NiAxLjcwNjgzLC0xLjA0MzEgeiIvPiYjeGE7PHBhdGggZD0ibSA1ODEuMDUxMjgsMzMwLjE4NzczIGMgLTQuNDE4ODEsLTMuNTU3ODEgLTEyLjc5MzY5LC00LjM1MDU0IC0xNy42MzczMSwtNC41MDYwNSAtMi4yMzQwNiwtMC4wNjA3IC0zLjczMjI4LDAgLTMuNzMyMjgsMCBsIC0xMTMuNzE3MDMsMCBjIDAsMCAtMy40NDc4MSwtMC4yNjU1MSAtNy42NjU1OSwwIC00LjEwNzc5LDAuMjY1NTEgLTguOTQzODIsMS4wMzU0OCAtMTEuOTcwNjEsMy4wOTEyNyAtNy42OTIxNSw1LjE4NDk5IC04LjY1OTM1LDEzLjY1NDY5IC04LjY1OTM1LDIxLjMzOTI1IGwgMCw5Ny42MjcyNCAyOC4yOTU1NSwwIDAsLTg1LjcxMzUzIGMgMCwtMTIuMzAwNiAxMC41MzY4NywtMTAuOTU0MDkgMTAuNTM2ODcsLTEwLjk1NDA5IGwgMzIuODQ3MTIsMCAwLDk2LjU1MDA0IDI2Ljk2ODAxLDAgMCwtOTYuNTUwMDQgMzMuNjEzMywwIGMgOS4wNTAwMywwIDkuNzIxMzgsNy44NzA0MSA5Ljc1MTczLDkuNjM0MTQgbCAwLDAuMzY3OTIgMCw4Ni42NjU1NiAyOC4zMTgzMSwwIDAsLTk2LjY2NzYyIDAsLTAuNjg2NTMgYyAtMC4wNDE2LC0zLjAxMTYyIC0wLjU4NzkxLC0xNS4wODQ2NCAtNi45NDg3MiwtMjAuMTk3NTYgbSAtMjM5LjI2NDMzLC00LjUwNjA1IGMgLTQuMTE1MzcsMC4yNjU1MSAtOC45NTE0LDEuMDM1NDggLTExLjk4NTc4LDMuMDkxMjcgLTcuNjkyMTQsNS4xODQ5OSAtOC42NDc5NywxMy42NTQ2OSAtOC42NDc5NywyMS4zMzkyNSBsIDAsOTcuNjI3MjQgMjguMjkxNzYsMCAwLC04NS43MTM1MyBjIDAsLTEyLjMwMDYgMTAuNTQwNjYsLTEwLjk1NDA5IDEwLjU0MDY2LC0xMC45NTQwOSBsIDM3LjUzNTIzLDAgMCwtMjUuMzkwMTQgLTQ4LjA3NTg5LDAgYyAwLDAgLTMuNDQ3ODEsLTAuMjY1NTEgLTcuNjU4MDEsMCBtIC03Mi4xMDgxNCw4NS42MDM1MyBjIDAsMTIuMjk2ODEgLTEwLjUzMzA4LDEwLjk1Nzg5IC0xMC41MzMwOCwxMC45NTc4OSBsIC0zOC42NDI3OCwwIGMgLTkuMDM0ODUsMCAtOS43MTc1OSwtNy44ODE3OSAtOS43NDc5MywtOS42NTMxMSBsIDAsLTAuMzUyNzQgMCwtODYuNjg0NTMgLTI4LjMwNjkzLDAgMCw5Ni42OTAzOCAwLDAuNjg2NTMgYyAwLjAzNCwyLjk4ODg2IDAuNTg0MTEsMTUuMDc3MDUgNi45NDQ5MywyMC4xOTM3NyA0LjQxNTAxLDMuNTU0MDEgMTIuNzg2MSw0LjM1MDU0IDE3LjYyOTcyLDQuNDk4NDYgMi4yMzc4NSwwLjA3MTkgMy43MzIyOCwwIDMuNzMyMjgsMCBsIDU4LjkyMzc5LDAgYyAwLDAgMy40NTE2LDAuMjczMSA3LjY1OCwwIDQuMTE1MzcsLTAuMjYxODYgOC45NDc2MiwtMS4wNDMwNiAxMS45ODE5OSwtMy4wOTEyNyA3LjY4NDU2LC01LjE5NjM3IDguNjU5MzUsLTEzLjY0MzMxIDguNjU5MzUsLTIxLjMzNTQ1IGwgMCwtOTcuNjQyNDIgLTI4LjI5OTM0LDAgMCw4NS43MzI0OSB6IG0gLTE0MC4xNjU0MSwzNi4zMzY2NSAyOC4yOTU1NiwwIDAsLTE3My42MjY5OCAtMjguMjk1NTYsMCAwLDE3My42MjY5OCB6IG0gLTI1LjEyMDg0LC01NS43MTExNCBjIDAsMCAwLjI1NzkyLC04Ljk3MDM3IC01LjM0NDI5MiwtMTIuODQyOTkgLTUuMTU4NDM5LC0zLjUzNTA1IC0xMi41NzM2OTUsLTMuNTM1MDUgLTEyLjU3MzY5NSwtMy41MzUwNSBsIC01MS41Mjc0OTQsMCBjIDAsMCAtNy43NTY2MjMsMC41MTk2NCAtNy43NTY2MjMsLTcuNzU2NjIgbCAwLC04LjY5MzQ5IGMgMCwwIC0wLjY4MjczNSwtOS4xODI3OCA5LjE3ODk4NiwtOS4xODI3OCBsIDY2LjgyMDc0OCwwIDAsLTI0LjM0NzA3IC03Mi4yOTQwMDMsMCBjIDAsMCAtMTEuOTc4MTk4LC0wLjE2MzI1IC0xNi43MzQ1ODIsMC45NjM0MSBDIDcuODY1Mjc1MywzMjguMDA2NzcgMSwzMzEuMjMwNzkgMSwzNDUuNTUzMDUgbCAwLDM0LjU1MDE2IGMgMCwxOC43NjM4MiAxNy44ODc2NDUsMTYuNzk1MjcgMTcuODg3NjQ1LDE2Ljc5NTI3IGwgNDguMDMwMzc2LDAgYyAxMS4zODI3MDIsMCAxMC41NzQ3OTksOC40MDUyMiAxMC41NzQ3OTksOC40MDUyMiBsIDAsOC4zMDY2IGMgMCwxMC45ODA2NSAtMTIuNDQ0NzMzLDkuMjMyMDkgLTEyLjQ0NDczMyw5LjIzMjA5IGwgLTY0LjA0ODA4NywwIDAsMjQuNzc5NDcgODIuOTYzNjI3LDAgYyAwLDAgMTAuODYzMDY1LDAuMzcxNzEgMTUuODU4NDA2LC01LjM5NzM5IDUuMDAyOTI3LC01Ljc2OTExIDQuNTcwNTI3LC0xNS4yNDAxNiA0LjU3MDUyNywtMTUuMjQwMTYgbCAwLC0zNS4wNzM1OSB6Ii8+JiN4YTs8L3N2Zz4=;" parent="zK5N3sGlRaZQG15lqHpW-5" vertex="1">
          <mxGeometry x="25" width="70" height="70" as="geometry" />
        </mxCell>
        <mxCell id="zK5N3sGlRaZQG15lqHpW-4" value="Slurm CLI" style="text;whiteSpace=wrap;html=1;align=center;verticalAlign=middle;" parent="zK5N3sGlRaZQG15lqHpW-5" vertex="1">
          <mxGeometry y="75" width="120" height="20" as="geometry" />
        </mxCell>
        <mxCell id="zK5N3sGlRaZQG15lqHpW-9" value="" style="group" parent="SOyPLKrSQ2KFvX7laYr--1" vertex="1" connectable="0">
          <mxGeometry x="210" y="35" width="120" height="95" as="geometry" />
        </mxCell>
        <mxCell id="SOyPLKrSQ2KFvX7laYr--28" value="" style="shape=image;verticalLabelPosition=bottom;labelBackgroundColor=default;verticalAlign=top;aspect=fixed;imageAspect=0;image=data:image/svg+xml,PHN2ZyB4bWxucz0iaHR0cDovL3d3dy53My5vcmcvMjAwMC9zdmciIHZpZXdCb3g9IjAgMCAyNCAyNCIgcm9sZT0iaW1nIj48dGl0bGU+UHJvbWV0aGV1czwvdGl0bGU+PHBhdGggZD0iTTEyIDBDNS4zNzMgMCAwIDUuMzcyIDAgMTJjMCA2LjYyNyA1LjM3MyAxMiAxMiAxMnMxMi01LjM3MyAxMi0xMmMwLTYuNjI4LTUuMzczLTEyLTEyLTEyem0wIDIyLjQ2Yy0xLjg4NSAwLTMuNDE0LTEuMjYtMy40MTQtMi44MTRoNi44MjhjMCAxLjU1My0xLjUyOCAyLjgxMy0zLjQxNCAyLjgxM3ptNS42NC0zLjc0NUg2LjM2di0yLjA0NmgxMS4yOHYyLjA0NnptLS4wNC0zLjA5OEg2LjM5MWMtLjAzNy0uMDQzLS4wNzUtLjA4Ni0uMTExLS4xMy0xLjE1NS0xLjQwMS0xLjQyNy0yLjEzMy0xLjY5LTIuODc5LS4wMDUtLjAyNSAxLjQuMjg3IDIuMzk1LjUxMSAwIDAgLjUxMy4xMTkgMS4yNjIuMjU1LS43Mi0uODQzLTEuMTQ3LTEuOTE1LTEuMTQ3LTMuMDEgMC0yLjQwNiAxLjg0NS00LjUwOCAxLjE4LTYuMjA3LjY0OC4wNTMgMS4zNCAxLjM2NyAxLjM4NyAzLjQyMi42ODktLjk1MS45NzctMi42OS45NzctMy43NTUgMC0xLjEwMy43MjctMi4zODUgMS40NTQtMi40MjktLjY0OCAxLjA2OS4xNjggMS45ODQuODk0IDQuMjU2LjI3Mi44NTQuMjM3IDIuMjkuNDQ3IDMuMjAxLjA3LTEuODkyLjM5NS00LjY1MiAxLjU5NS01LjYwNS0uNTI5IDEuMi4wNzkgMi43MDIuNDk0IDMuNDI0LjY3MSAxLjE2NCAxLjA3OCAyLjA0NyAxLjA3OCAzLjcxNmE0LjY0MiA0LjY0MiAwIDAxLTEuMTEgMi45OTZjLjc5Mi0uMTQ5IDEuMzQtLjI4MyAxLjM0LS4yODNsMi41NzMtLjUwMnMtLjM3NCAxLjUzOC0xLjgxIDMuMDE5eiIvPjwvc3ZnPg==;" parent="zK5N3sGlRaZQG15lqHpW-9" vertex="1">
          <mxGeometry x="25" width="70" height="70" as="geometry" />
        </mxCell>
        <mxCell id="zK5N3sGlRaZQG15lqHpW-6" value="Metrics Gathering" style="text;whiteSpace=wrap;html=1;align=center;verticalAlign=middle;" parent="zK5N3sGlRaZQG15lqHpW-9" vertex="1">
          <mxGeometry y="75" width="120" height="20" as="geometry" />
        </mxCell>
        <mxCell id="zK5N3sGlRaZQG15lqHpW-10" value="" style="edgeStyle=orthogonalEdgeStyle;rounded=0;orthogonalLoop=1;jettySize=auto;html=1;" parent="SOyPLKrSQ2KFvX7laYr--1" source="lpeds_Ub-o3JxPmcsXHy-22" target="zK5N3sGlRaZQG15lqHpW-6" edge="1">
          <mxGeometry relative="1" as="geometry" />
        </mxCell>
        <mxCell id="zK5N3sGlRaZQG15lqHpW-11" style="edgeStyle=orthogonalEdgeStyle;rounded=0;orthogonalLoop=1;jettySize=auto;html=1;exitX=0.5;exitY=0;exitDx=0;exitDy=0;entryX=0.75;entryY=1;entryDx=0;entryDy=0;" parent="SOyPLKrSQ2KFvX7laYr--1" source="lpeds_Ub-o3JxPmcsXHy-12" target="zK5N3sGlRaZQG15lqHpW-6" edge="1">
          <mxGeometry relative="1" as="geometry" />
        </mxCell>
        <mxCell id="zK5N3sGlRaZQG15lqHpW-12" style="edgeStyle=orthogonalEdgeStyle;rounded=0;orthogonalLoop=1;jettySize=auto;html=1;exitX=0.5;exitY=0;exitDx=0;exitDy=0;entryX=0.25;entryY=1;entryDx=0;entryDy=0;" parent="SOyPLKrSQ2KFvX7laYr--1" source="lpeds_Ub-o3JxPmcsXHy-16" target="zK5N3sGlRaZQG15lqHpW-6" edge="1">
          <mxGeometry relative="1" as="geometry" />
        </mxCell>
        <mxCell id="zK5N3sGlRaZQG15lqHpW-14" value="" style="group" parent="SOyPLKrSQ2KFvX7laYr--1" vertex="1" connectable="0">
          <mxGeometry x="45" y="35" width="120" height="80" as="geometry" />
        </mxCell>
        <mxCell id="SOyPLKrSQ2KFvX7laYr--30" value="" style="shape=image;verticalLabelPosition=bottom;labelBackgroundColor=default;verticalAlign=top;aspect=fixed;imageAspect=0;image=data:image/svg+xml,PHN2ZyB2aWV3Qm94PSIwIDAgMzIgMzIiIGhlaWdodD0iMzIiIHdpZHRoPSIzMiIgeG1sbnM9Imh0dHA6Ly93d3cudzMub3JnLzIwMDAvc3ZnIj4mI3hhOyAgPHBhdGggZD0iTTMwLjY2NyAxNC4xNjdjLTAuMDU3LTAuNTM2LTAuMTQxLTEuMTYxLTAuMzEzLTEuODQ0cy0wLjQ1My0xLjQyMi0wLjgyMy0yLjIxNGMtMC40MDEtMC43NjYtMC44OC0xLjU5NC0xLjUzNi0yLjM1OS0wLjI1NS0wLjMxMy0wLjUzNi0wLjU5NC0wLjgyMy0wLjkwNiAwLjQ1My0xLjc5Mi0wLjU0Mi0zLjM1NC0wLjU0Mi0zLjM1NC0xLjcyOS0wLjEwOS0yLjgwNyAwLjU0Mi0zLjIwOCAwLjgyOC0wLjA1Ny0wLjAzMS0wLjE0MS0wLjA1Ny0wLjE5OC0wLjA4OS0wLjI4MS0wLjEwOS0wLjU5NC0wLjIyNC0wLjkwNi0wLjMzOS0wLjMxMy0wLjA4OS0wLjYyNS0wLjE5OC0wLjkzOC0wLjI1NS0wLjMxMy0wLjA4OS0wLjY1MS0wLjE0Ni0wLjk5NS0wLjIwMy0wLjA1NyAwLTAuMTE1LTAuMDI2LTAuMTcyLTAuMDI2LTAuNzM0LTIuMzg1LTIuODk2LTMuNDA2LTIuODk2LTMuNDA2LTIuNDY5IDEuNTg5LTIuOTUzIDMuNzE5LTIuOTUzIDMuNzE5czAgMC4wNTctMC4wMjYgMC4xMTVjLTAuMTQxIDAuMDI2LTAuMjU1IDAuMDgzLTAuMzk2IDAuMTE1LTAuMTcyIDAuMDU3LTAuMzcgMC4xMTUtMC41NDIgMC4xOThzLTAuMzcgMC4xNDEtMC41NDIgMC4yMjRjLTAuMzcgMC4xNzItMC43MDggMC4zNDQtMS4wNzggMC41NDItMC4zMzkgMC4xOTMtMC42NzIgMC40MDEtMC45OSAwLjYyNS0wLjA1Ny0wLjAyNi0wLjA4OS0wLjA1Ny0wLjA4OS0wLjA1Ny0zLjMyMy0xLjI3Ni02LjI3NiAwLjI1NS02LjI3NiAwLjI1NS0wLjI1NSAzLjU1MiAxLjMzOSA1Ljc2NiAxLjY1MSA2LjE2MS0wLjA4OSAwLjIyOS0wLjE0NiAwLjQyNy0wLjIyOSAwLjY1Ni0wLjI1NSAwLjgwMi0wLjQzMiAxLjYzLTAuNTQyIDIuNDY5LTAuMDI2IDAuMTE1LTAuMDI2IDAuMjU1LTAuMDU3IDAuMzctMy4wNjMgMS41MDUtMy45NzQgNC42My0zLjk3NCA0LjYzIDIuNTU3IDIuOTUzIDUuNTY4IDMuMTIgNS41NjggMy4xMiAwLjM3NSAwLjY4MiAwLjgxMyAxLjMyOCAxLjMwNyAxLjkzMiAwLjE5OCAwLjI1NSAwLjQyMiAwLjQ4NCAwLjY1MSAwLjc0LTAuOTM4IDIuNjY3IDAuMTQxIDQuOTExIDAuMTQxIDQuOTExIDIuODcgMC4xMTUgNC43NDUtMS4yNSA1LjE0MS0xLjU2M2wwLjg0OSAwLjI1NWMwLjg4IDAuMjI5IDEuNzkyIDAuMzcgMi42NzIgMC40MDFoMS4xNjFjMS4zMzkgMS45MjcgMy43MjQgMi4xODcgMy43MjQgMi4xODcgMS42NzItMS43OTIgMS43ODYtMy41MjYgMS43ODYtMy45MjJ2LTAuMTcyYzAuMzQ0LTAuMjU1IDAuNjgyLTAuNTEgMS4wMjYtMC43OTIgMC42NzctMC41OTkgMS4yNDUtMS4zMDcgMS43Ni0yLjA0NyAwLjA1Ny0wLjA1NyAwLjA4My0wLjE0MSAwLjE0MS0wLjE5OCAxLjkwMSAwLjExNSAzLjIzNC0xLjE5MyAzLjIzNC0xLjE5My0wLjMxMy0xLjk4NC0xLjQ0OC0yLjk1My0xLjY3Mi0zLjEybC0wLjA1Ny0wLjA1Ny0wLjAyNi0wLjAzMWMwLTAuMTA5IDAuMDI2LTAuMjI0IDAuMDI2LTAuMzcgMC4wMjYtMC4yMjQgMC4wMjYtMC40MjIgMC4wMjYtMC42NTF2LTAuODIzYzAtMC4wNTcgMC0wLjExNS0wLjAyNi0wLjE3MmwtMC4wNTctMC4zMzljLTAuMDI2LTAuMjI5LTAuMDgzLTAuNDI3LTAuMTE1LTAuNjU2LTAuMTk4LTAuODM5LTAuNTIxLTEuNjQ2LTAuOTY0LTIuMzg1LTAuNDQ4LTAuNzE5LTAuOTktMS4zNjUtMS42Mi0xLjkzMi0wLjYwOS0wLjUzNi0xLjI5Ny0wLjk3OS0yLjA0Mi0xLjMwMi0wLjcwOC0wLjMzMy0xLjQ2OS0wLjU0Mi0yLjI0NS0wLjYzLTAuMzctMC4wNTctMC43NjYtMC4wNTctMS4xMzUtMC4wNTdoLTAuNTY4Yy0wLjE5OCAwLjAzMS0wLjM5NiAwLjA1Ny0wLjU2OCAwLjA4OS0wLjc2NiAwLjE0MS0xLjQ3OSAwLjQyNy0yLjEwNCAwLjc5Mi0wLjYyNSAwLjM3LTEuMTYxIDAuODU0LTEuNjE1IDEuMzkxLTAuNDQzIDAuNTE2LTAuNzkyIDEuMDk5LTEuMDI2IDEuNzM0LTAuMjI0IDAuNTk0LTAuMzcgMS4yNS0wLjM5NiAxLjg0NHYwLjY4MmMwIDAuMDgzIDAgMC4xNDEgMC4wMjYgMC4yMjkgMC4wODkgMC44NzUgMC40MTEgMS43MDggMC45MzggMi40MTEgMC4zNDQgMC40NTMgMC43MDggMC43OTcgMS4xMzUgMS4wNzggMC40MjcgMC4yODYgMC44NTQgMC40ODQgMS4zMDcgMC42MjUgMC40NTggMC4xNDYgMC44OCAwLjE5OCAxLjI3NiAwLjE3MmgwLjU5OWMwLjA1NyAwIDAuMTA5LTAuMDI2IDAuMTQxLTAuMDI2IDAuMDU3IDAgMC4wODMtMC4wMzEgMC4xNDEtMC4wMzEgMC4wODMtMC4wMjYgMC4xOTgtMC4wNTcgMC4yODEtMC4wODMgMC4xNzItMC4wNTcgMC4zNDQtMC4xNDEgMC41MTYtMC4xOTggMC4xNjctMC4wODkgMC4zMDctMC4xNzIgMC40MjItMC4yNiAwLjAzMS0wLjAyNiAwLjA4OS0wLjA1NyAwLjExNS0wLjA4MyAwLjE0MS0wLjEwOSAwLjE2Ny0wLjMxMyAwLjA1Ny0wLjQ1My0wLjExNS0wLjEwOS0wLjI4MS0wLjE0Ni0wLjQyNy0wLjA4OS0wLjAyNiAwLjAzMS0wLjA1NyAwLjAzMS0wLjEwOSAwLjA1Ny0wLjEyIDAuMDYzLTAuMjQ1IDAuMTA5LTAuMzcgMC4xNDYtMC4xNDYgMC4wMjYtMC4yODYgMC4wODMtMC40MjcgMC4xMDktMC4wODMgMC0wLjE0MSAwLjAzMS0wLjIyOSAwLjAzMWgtMC40NzljMCAwLTAuMDI2IDAgMCAwaC0wLjExNWMtMC4wMzEgMC0wLjA4MyAwLTAuMTE1LTAuMDMxLTAuMzEzLTAuMDU3LTAuNjUxLTAuMTQxLTAuOTY0LTAuMjgxLTAuMzEzLTAuMTQ2LTAuNjI1LTAuMzQ0LTAuODgtMC41OTktMC4yODYtMC4yNTUtMC41MS0wLjUzNi0wLjcwOC0wLjg4LTAuMTk4LTAuMzM5LTAuMzEzLTAuNzA4LTAuMzctMS4wNzgtMC4wMzEtMC4xOTgtMC4wNTctMC4zOTYtMC4wMzEtMC41OTR2LTAuMTcyYzAgMC4wMjYgMCAwIDAgMHYtMC4xNDFjMC0wLjExNSAwLjAzMS0wLjE5OCAwLjA1Ny0wLjMxMyAwLjE1MS0wLjg4IDAuNTc4LTEuNjg4IDEuMjI0LTIuMzAyIDAuMTcyLTAuMTcyIDAuMzM5LTAuMzEzIDAuNTQyLTAuNDIyIDAuMTk4LTAuMTQ2IDAuMzk2LTAuMjYgMC41OTQtMC4zNDRzMC40MjctMC4xNzIgMC42NTEtMC4yMjljMC4yMjktMC4wNTcgMC40NTgtMC4xMDkgMC42ODItMC4xMDkgMC4xMTUgMCAwLjIyOS0wLjAzMSAwLjM0NC0wLjAzMWgwLjIyNGMwLjAzMSAwIDAgMCAwIDBoMC4xMTVjMC43NiAwLjA2MyAxLjQ5NSAwLjI4NiAyLjE2MSAwLjY1NiAwLjkwNiAwLjUxIDEuNjcyIDEuMjc2IDIuMTI1IDIuMjE0IDAuMjI5IDAuNDUzIDAuNDAxIDAuOTY0IDAuNDg0IDEuNTA1IDAuMDI2IDAuMTQxIDAuMDI2IDAuMjU1IDAuMDU3IDAuMzk2djAuNzRjMCAwLjE0MS0wLjAyNiAwLjI4Ni0wLjAyNiAwLjQyNy0wLjAzMSAwLjE0MS0wLjAzMSAwLjI4MS0wLjA1NyAwLjQyMmwtMC4wODkgMC40MjdjLTAuMDI2IDAuMTQxLTAuMTY3IDAuNTQyLTAuMjU1IDAuODIzLTAuMDgzIDAuMjg2LTAuNDc5IDEuMDUyLTAuODIzIDEuNTA1LTAuNjg4IDAuOTQ4LTEuNjA5IDEuNjk4LTIuNjcyIDIuMTg4LTAuNTM2IDAuMjI5LTEuMDc4IDAuNDI3LTEuNjQ2IDAuNTEtMC4yODEgMC4wNTctMC41NjMgMC4wODktMC44NDkgMC4wODloLTAuNDI3YzAuMDI2IDAgMCAwIDAgMGgtMC4wMjZjLTAuMTQxIDAtMC4zMTMgMC0wLjQ1OC0wLjAzMS0wLjYyNS0wLjA1Ny0xLjIxOS0wLjE3Mi0xLjgxOC0wLjMzOS0wLjU5NC0wLjE3Mi0xLjE2MS0wLjQwMS0xLjcwMy0wLjY4Mi0xLjA3OC0wLjU4My0yLjAzNi0xLjM3NS0yLjgwNy0yLjMyOC0wLjM3LTAuNDg0LTAuNzE0LTAuOTk1LTAuOTk1LTEuNTMxLTAuMjg2LTAuNTQyLTAuNDg0LTEuMTA5LTAuNjU2LTEuNjc3LTAuMTYxLTAuNTczLTAuMjYtMS4xNjEtMC4yODEtMS43NnYtMC44OGMwLTAuMjgxIDAuMDI2LTAuNTk0IDAuMDgzLTAuOTA2IDAuMDMxLTAuMzEzIDAuMDg5LTAuNTk5IDAuMTQxLTAuOTExIDAuMDU3LTAuMzA3IDAuMTQ2LTAuNTk0IDAuMjI5LTAuOTA2czAuMzctMS4xNjEgMC42MjUtMS43MDNjMC41MS0xLjA3OCAxLjE2Ny0yLjA0NyAxLjkzMi0yLjgxMyAwLjE5OC0wLjE5OCAwLjM5Ni0wLjM3IDAuNjI1LTAuNTM2IDAuMDgzLTAuMDg5IDAuMjgxLTAuMjYgMC41MS0wLjQwMSAwLjIyNC0wLjE0MSAwLjQ1My0wLjI4MSAwLjcwOC0wLjM5NiAwLjExNS0wLjA1NyAwLjIyOS0wLjExNSAwLjM3LTAuMTcyIDAuMDU3LTAuMDI2IDAuMTE1LTAuMDU3IDAuMTk4LTAuMDgzIDAuMDU3LTAuMDI2IDAuMTE1LTAuMDU3IDAuMTk4LTAuMDg5IDAuMjU1LTAuMTA5IDAuNTEtMC4xOTggMC43NjYtMC4yODEgMC4wNTctMC4wMjYgMC4xNDYtMC4wMjYgMC4yMDMtMC4wNTdzMC4xNDEtMC4wMjYgMC4xOTgtMC4wNTdjMC4wNTctMC4wMzEgMC4yNTUtMC4wNTcgMC4zOTYtMC4xMTUgMC4wNTctMC4wMjYgMC4xNDEtMC4wMjYgMC4xOTgtMC4wNTcgMC4wNTcgMCAwLjE0MS0wLjAyNiAwLjE5OC0wLjAyNnMwLjE0MS0wLjAzMSAwLjE5OC0wLjAzMWwwLjIyOS0wLjA1N2MwLjA1NyAwIDAuMTQxLTAuMDI2IDAuMTk4LTAuMDI2IDAuMDg5IDAgMC4xNDEtMC4wMjYgMC4yMjktMC4wMjYgMC4wNTcgMCAwLjE2Ny0wLjAzMSAwLjIyNC0wLjAzMXMwLjA4OSAwIDAuMTQxLTAuMDI2aDAuMTk4YzAuMDg5IDAgMC4xNDYgMCAwLjIyOS0wLjAyNmgwLjExNWMwIDAgMC4wMjYgMCAwIDBoMS4wNDdjMC41MSAwLjAyNiAxLjAyNiAwLjA4MyAxLjUwNSAwLjE2NyAwLjk1MyAwLjE2NyAxLjg3IDAuNDc0IDIuNzI5IDAuOTExIDAuNzk3IDAuMzg1IDEuNTQyIDAuODcgMi4yMTQgMS40NDggMC4wMjYgMC4wMjYgMC4wODMgMC4wNTcgMC4xMTUgMC4xMDkgMC4wMjYgMC4wMzEgMC4wODMgMC4wNTcgMC4xMDkgMC4xMTUgMC4wODkgMC4wNTcgMC4xNDYgMC4xNDEgMC4yMjkgMC4xOThzMC4xNDEgMC4xNDEgMC4yMjkgMC4xOThjMC4wNTcgMC4wODkgMC4xNDEgMC4xNDYgMC4xOTggMC4yMjkgMC43NTUgMC43NzYgMS4zOTEgMS42NjcgMS44NzUgMi42NDEgMC4wMjYgMC4wMjYgMC4wMjYgMC4wNTcgMC4wNTcgMC4xMTUgMC4wMjYgMC4wMjYgMC4wMjYgMC4wNTcgMC4wNTcgMC4xMDkgMC4wMjYgMC4wNTcgMC4wNTcgMC4xNDYgMC4xMDkgMC4yMDMgMC4wMzEgMC4wNTcgMC4wNTcgMC4xNDEgMC4wODkgMC4xOTggMC4wMjYgMC4wNTcgMC4wNTcgMC4xNDEgMC4wODMgMC4xOTggMC4xMTUgMC4yNTUgMC4xOTggMC41MSAwLjI4NiAwLjc2NiAwLjE0MSAwLjM5NiAwLjIyNCAwLjc0IDAuMzEzIDEuMDIxIDAuMDMxIDAuMTIgMC4xMzUgMC4xOTggMC4yNTUgMC4yMDMgMC4xNDEgMCAwLjIyNC0wLjExNSAwLjIyNC0wLjI2LTAuMDI2LTAuMzM5LTAuMDI2LTAuNzA4LTAuMDU3LTEuMTM1eiIvPiYjeGE7PC9zdmc+;" parent="zK5N3sGlRaZQG15lqHpW-14" vertex="1">
          <mxGeometry x="25" width="70" height="70" as="geometry" />
        </mxCell>
        <mxCell id="zK5N3sGlRaZQG15lqHpW-13" value="Metrics Visualization" style="text;whiteSpace=wrap;html=1;verticalAlign=middle;align=center;" parent="zK5N3sGlRaZQG15lqHpW-14" vertex="1">
          <mxGeometry y="75" width="120" height="20" as="geometry" />
        </mxCell>
      </root>
    </mxGraphModel>
  </diagram>
</mxfile>
